<svg width="108" height="41" viewBox="0 0 108 41" fill="none" xmlns="http://www.w3.org/2000/svg">
<path d="M45.1706 34.4943C44.4991 34.2023 44.2053 33.4932 44.4152 32.9093L47.8987 23.7748C48.0666 23.3577 48.6122 23.1491 49.0738 23.3577L50.7946 24.1084C51.2563 24.317 51.4661 24.8175 51.2563 25.2346L46.8074 33.952C46.5556 34.536 45.8421 34.7862 45.1706 34.4943Z" fill="#E71882"/>
<path d="M53.9424 15.9332L53.6486 15.7664C52.1377 15.0156 49.5775 15.8081 48.7381 17.7685L48.6961 17.8519C48.2764 18.9364 48.3184 20.0626 48.7381 21.0636C48.864 21.3139 49.0319 21.5224 49.2837 21.6058L52.6413 23.1491C52.8931 23.2742 53.145 23.2742 53.3968 23.1908C54.3621 22.8571 55.2015 22.1064 55.6212 21.0219L55.6632 20.9385C56.5026 18.9781 55.831 16.8092 53.9424 15.9332Z" fill="#E71882"/>
<path d="M51.9278 24.2336L48.4443 22.6903C48.3184 22.6486 48.2764 22.4817 48.3184 22.3566L48.4863 21.9812C48.5282 21.8561 48.6961 21.8144 48.822 21.8561L52.3055 23.3994C52.4314 23.4411 52.4734 23.6079 52.4314 23.733L52.2636 24.1084C52.2216 24.2336 52.0537 24.2753 51.9278 24.2336Z" fill="#E71882"/>
<path d="M5.80213 39.708C3.11604 39.708 1.22739 37.9144 1.01754 36.0792C0.849659 34.5359 1.85694 32.5338 5.34046 32.075C6.2638 31.9499 7.14518 32.0333 8.02655 32.1167C8.2364 32.1167 8.44625 32.1584 8.6561 32.1584C10.6707 32.3253 13.1049 32.7424 15.791 33.3263C17.218 31.9916 18.4771 30.4483 19.7362 28.8633C20.9533 27.3201 22.4223 25.318 24.1011 23.0239C27.8784 17.8101 32.3692 11.0948 37.1958 6.84038C39.0005 5.2554 40.7213 3.87896 42.6939 2.91963C47.0588 0.750702 48.8635 1.83517 49.577 3.12818C50.1226 4.08751 50.0806 5.33882 49.4091 6.29815C47.4365 9.13444 41.9384 13.3055 39.672 14.9739C39.1684 15.3493 38.5388 15.391 37.9512 15.1407C37.4056 14.8904 37.0279 14.3482 37.0279 13.7226C36.9859 13.0969 37.1538 12.513 37.1538 12.4713C37.2797 12.0124 37.7834 11.7205 38.245 11.8456C38.7067 11.9707 39.0005 12.4713 38.8746 12.9301C38.8746 12.9301 38.8326 13.1386 38.7906 13.3889C40.7213 11.9707 46.0934 7.92485 47.8562 5.33882C48.15 4.92172 48.15 4.42119 47.9401 4.0458C47.4365 3.16989 45.7996 3.37844 43.4073 4.54632C41.6026 5.42224 39.9238 6.67354 38.3709 8.17511C33.8801 12.4713 29.2634 18.8946 25.5281 24.025C23.8493 26.3607 22.3803 28.4045 21.1212 29.9478C20.03 31.2825 18.9807 32.5755 17.8056 33.7851C19.1906 34.1188 20.5756 34.4525 22.0446 34.7862C30.5225 36.7883 41.057 39.2909 43.4913 36.7048C43.827 36.3294 44.4146 36.3294 44.7504 36.6631C45.1281 36.9968 45.1281 37.5808 44.7924 37.9144C41.6446 41.293 31.9075 38.9572 21.5829 36.538C19.7362 36.1209 17.9315 35.6621 16.2107 35.2867C15.1615 36.2043 14.0283 37.0385 12.7272 37.7059C10.4608 38.9155 8.36231 39.5828 6.38971 39.6663C6.2638 39.6663 6.01198 39.708 5.80213 39.708ZM6.34774 33.7851C6.09592 33.7851 5.80213 33.7851 5.55031 33.8268C3.70363 34.0771 2.69634 34.8279 2.82225 35.8706C2.94816 36.8717 4.20727 38.123 6.30577 37.9144H6.34774C8.02655 37.831 9.9152 37.2054 11.9717 36.1209C12.6852 35.7455 13.3987 35.2867 14.0702 34.7862C11.9717 34.3691 10.0831 34.0354 8.53019 33.9103C8.32034 33.9103 8.11049 33.8685 7.90064 33.8685C7.31306 33.8268 6.85138 33.7851 6.34774 33.7851Z" fill="#E71882"/>
<path d="M72.3249 39.9582C72.157 39.9582 72.0311 39.9582 71.8632 39.9582C70.4362 39.8748 69.1352 39.3743 68.2118 38.4984C67.0367 37.4139 66.9947 36.3295 67.1206 35.5787C67.4563 33.8686 69.387 32.2836 71.3176 31.1157C70.6461 30.782 70.1424 30.2398 69.8486 29.4473C69.5129 28.6131 69.5968 27.7372 70.0585 26.8613C71.4015 24.3169 75.8923 22.3148 78.6624 21.7309C79.9634 21.4389 81.3904 21.2721 81.8521 22.2314C82.3977 23.2325 81.1806 24.5255 80.3831 25.2346C80.0474 25.5265 79.5437 25.4848 79.2499 25.1511C78.9562 24.8175 78.9981 24.3169 79.3339 24.025C79.6696 23.733 80.0054 23.3576 80.2153 23.0656C79.9634 23.0656 79.5857 23.1073 78.9981 23.2325C76.5219 23.7747 72.5347 25.6099 71.4855 27.5703C71.2337 28.0291 71.1917 28.4462 71.3596 28.8633C71.5275 29.3221 71.7373 29.5724 72.115 29.6975C72.7446 29.9478 73.6679 29.7393 74.3814 29.489C74.927 29.2387 75.3467 29.0719 75.5146 29.0302C75.8923 28.8633 76.354 29.0719 76.5219 29.4473C76.6898 29.8227 76.5639 30.2815 76.1861 30.49C76.0602 30.5317 75.5985 30.8237 74.927 31.0323C72.3249 32.2002 69.0512 34.2022 68.7155 35.8706C68.6735 36.2043 68.6315 36.7048 69.345 37.3305C70.0165 37.9562 70.9399 38.3315 71.9891 38.3733C77.1095 38.6235 81.2225 33.8686 81.2645 33.8268C81.5583 33.4932 81.978 33.368 82.3138 33.66C82.6495 33.952 82.6495 34.4942 82.3977 34.8279C82.1459 34.9947 77.9908 39.9582 72.3249 39.9582Z" fill="#E71882"/>
<path d="M46.2194 39.9999C45.5059 39.9999 44.9603 39.7914 44.5406 39.416C42.6939 37.7893 44.5406 33.7017 44.9603 32.8675L46.3873 33.5349C45.6318 35.1199 44.9184 37.6225 45.5899 38.2064C45.7997 38.4149 47.2267 39.124 53.4803 35.0364L54.3616 36.3712C50.6263 38.832 47.9822 39.9999 46.2194 39.9999Z" fill="#E71882"/>
<path d="M54.2778 39.7497C53.8161 39.7497 53.3964 39.5411 53.1446 39.1657C52.6829 38.415 52.2632 37.0385 54.9913 31.1157C55.8307 29.2804 56.754 27.4452 57.5934 25.9019C57.6354 25.8185 57.5514 25.7768 57.4675 25.8185L54.8653 27.904C54.5296 28.196 54.0259 28.1126 53.7322 27.7789C53.4384 27.4452 53.5223 26.9447 53.8581 26.6527L59.1883 22.3983C59.524 22.1063 60.0277 22.1063 60.3634 22.3983C60.6992 22.6902 60.7831 23.149 60.5733 23.5661C56.9219 30.2398 54.8234 34.9947 54.2358 37.2471C54.1099 37.7893 54.6555 38.2064 55.1591 37.9979C58.7686 36.4129 66.3652 30.1564 68.9253 23.3993C69.6388 21.4389 69.429 20.855 69.345 20.7716C68.9253 20.7716 68.5896 20.4796 68.5476 20.0625C68.5056 19.6454 68.7994 19.2283 69.2611 19.1866C69.6388 19.1449 70.1844 19.27 70.6041 19.7705C71.2337 20.563 71.1497 21.8977 70.4362 23.9415C67.3724 32.075 57.8452 39.4994 54.3617 39.7914C54.4037 39.7497 54.3617 39.7497 54.2778 39.7497Z" fill="#E71882"/>
<path d="M5.80213 39.708C3.11604 39.708 1.22739 37.9144 1.01754 36.0792C0.849659 34.5359 1.85694 32.5338 5.34046 32.075C6.2638 31.9499 7.14518 32.0333 8.02655 32.1167C8.2364 32.1167 8.44625 32.1584 8.6561 32.1584C10.6707 32.3253 13.1049 32.7424 15.791 33.3263C17.218 31.9916 18.4771 30.4483 19.7362 28.8633C20.9533 27.3201 22.4223 25.318 24.1011 23.0239C27.8784 17.8101 32.3692 11.0948 37.1958 6.84038C39.0005 5.2554 40.7213 3.87896 42.6939 2.91963C47.0588 0.750702 48.8635 1.83517 49.577 3.12818C50.1226 4.08751 50.0806 5.33882 49.4091 6.29815C47.4365 9.13444 41.9384 13.3055 39.672 14.9739C39.1684 15.3493 38.5388 15.391 37.9512 15.1407C37.4056 14.8904 37.0279 14.3482 37.0279 13.7226C36.9859 13.0969 37.1538 12.513 37.1538 12.4713C37.2797 12.0124 37.7834 11.7205 38.245 11.8456C38.7067 11.9707 39.0005 12.4713 38.8746 12.9301C38.8746 12.9301 38.8326 13.1386 38.7906 13.3889C40.7213 11.9707 46.0934 7.92485 47.8562 5.33882C48.15 4.92172 48.15 4.42119 47.9401 4.0458C47.4365 3.16989 45.7996 3.37844 43.4073 4.54632C41.6026 5.42224 39.9238 6.67354 38.3709 8.17511C33.8801 12.4713 29.2634 18.8946 25.5281 24.025C23.8493 26.3607 22.3803 28.4045 21.1212 29.9478C20.03 31.2825 18.9807 32.5755 17.8056 33.7851C19.1906 34.1188 20.5756 34.4525 22.0446 34.7862C30.5225 36.7883 41.057 39.2909 43.4913 36.7048C43.827 36.3294 44.4146 36.3294 44.7504 36.6631C45.1281 36.9968 45.1281 37.5808 44.7924 37.9144C41.6446 41.293 31.9075 38.9572 21.5829 36.538C19.7362 36.1209 17.9315 35.6621 16.2107 35.2867C15.1615 36.2043 14.0283 37.0385 12.7272 37.7059C10.4608 38.9155 8.36231 39.5828 6.38971 39.6663C6.2638 39.6663 6.01198 39.708 5.80213 39.708ZM6.34774 33.7851C6.09592 33.7851 5.80213 33.7851 5.55031 33.8268C3.70363 34.0771 2.69634 34.8279 2.82225 35.8706C2.94816 36.8717 4.20727 38.123 6.30577 37.9144H6.34774C8.02655 37.831 9.9152 37.2054 11.9717 36.1209C12.6852 35.7455 13.3987 35.2867 14.0702 34.7862C11.9717 34.3691 10.0831 34.0354 8.53019 33.9103C8.32034 33.9103 8.11049 33.8685 7.90064 33.8685C7.31306 33.8268 6.85138 33.7851 6.34774 33.7851Z" stroke="#E71882" stroke-width="0.25" stroke-miterlimit="10"/>
<path d="M72.3249 39.9582C72.157 39.9582 72.0311 39.9582 71.8632 39.9582C70.4362 39.8748 69.1352 39.3743 68.2118 38.4984C67.0367 37.4139 66.9947 36.3295 67.1206 35.5787C67.4563 33.8686 69.387 32.2836 71.3176 31.1157C70.6461 30.782 70.1424 30.2398 69.8486 29.4473C69.5129 28.6131 69.5968 27.7372 70.0585 26.8613C71.4015 24.3169 75.8923 22.3148 78.6624 21.7309C79.9634 21.4389 81.3904 21.2721 81.8521 22.2314C82.3977 23.2325 81.1806 24.5255 80.3831 25.2346C80.0474 25.5265 79.5437 25.4848 79.2499 25.1511C78.9562 24.8175 78.9981 24.3169 79.3339 24.025C79.6696 23.733 80.0054 23.3576 80.2153 23.0656C79.9634 23.0656 79.5857 23.1073 78.9981 23.2325C76.5219 23.7747 72.5347 25.6099 71.4855 27.5703C71.2337 28.0291 71.1917 28.4462 71.3596 28.8633C71.5275 29.3221 71.7373 29.5724 72.115 29.6975C72.7446 29.9478 73.6679 29.7393 74.3814 29.489C74.927 29.2387 75.3467 29.0719 75.5146 29.0302C75.8923 28.8633 76.354 29.0719 76.5219 29.4473C76.6898 29.8227 76.5639 30.2815 76.1861 30.49C76.0602 30.5317 75.5985 30.8237 74.927 31.0323C72.3249 32.2002 69.0512 34.2022 68.7155 35.8706C68.6735 36.2043 68.6315 36.7048 69.345 37.3305C70.0165 37.9562 70.9399 38.3315 71.9891 38.3733C77.1095 38.6235 81.2225 33.8686 81.2645 33.8268C81.5583 33.4932 81.978 33.368 82.3138 33.66C82.6495 33.952 82.6495 34.4942 82.3977 34.8279C82.1459 34.9947 77.9908 39.9582 72.3249 39.9582Z" stroke="#E71882" stroke-width="0.25" stroke-miterlimit="10"/>
<path d="M46.2194 39.9999C45.5059 39.9999 44.9603 39.7914 44.5406 39.416C42.6939 37.7893 44.5406 33.7017 44.9603 32.8675L46.3873 33.5349C45.6318 35.1199 44.9184 37.6225 45.5899 38.2064C45.7997 38.4149 47.2267 39.124 53.4803 35.0364L54.3616 36.3712C50.6263 38.832 47.9822 39.9999 46.2194 39.9999Z" stroke="#E71882" stroke-width="0.25" stroke-miterlimit="10"/>
<path d="M54.2778 39.7497C53.8161 39.7497 53.3964 39.5411 53.1446 39.1657C52.6829 38.415 52.2632 37.0385 54.9913 31.1157C55.8307 29.2804 56.754 27.4452 57.5934 25.9019C57.6354 25.8185 57.5514 25.7768 57.4675 25.8185L54.8653 27.904C54.5296 28.196 54.0259 28.1126 53.7322 27.7789C53.4384 27.4452 53.5223 26.9447 53.8581 26.6527L59.1883 22.3983C59.524 22.1063 60.0277 22.1063 60.3634 22.3983C60.6992 22.6902 60.7831 23.149 60.5733 23.5661C56.9219 30.2398 54.8234 34.9947 54.2358 37.2471C54.1099 37.7893 54.6555 38.2064 55.1591 37.9979C58.7686 36.4129 66.3652 30.1564 68.9253 23.3993C69.6388 21.4389 69.429 20.855 69.345 20.7716C68.9253 20.7716 68.5896 20.4796 68.5476 20.0625C68.5056 19.6454 68.7994 19.2283 69.2611 19.1866C69.6388 19.1449 70.1844 19.27 70.6041 19.7705C71.2337 20.563 71.1497 21.8977 70.4362 23.9415C67.3724 32.075 57.8452 39.4994 54.3617 39.7914C54.4037 39.7497 54.3617 39.7497 54.2778 39.7497Z" stroke="#E71882" stroke-width="0.25" stroke-miterlimit="10"/>
<path d="M54.7819 20.9386C54.6979 20.8969 54.656 20.8135 54.6979 20.7301C55.7052 17.7686 53.3549 16.851 53.2709 16.8093C53.187 16.7676 53.145 16.6842 53.187 16.6008C53.229 16.5173 53.3129 16.4756 53.3969 16.5173C53.4388 16.5173 56.1249 17.6018 55.0337 20.8552C54.9497 20.9386 54.8658 20.9803 54.7819 20.9386Z" fill="white"/>
<path d="M49.5355 25.9438L49.8713 25.1513C49.9552 24.9428 49.8713 24.7342 49.6614 24.6508C49.4516 24.5674 49.2417 24.6508 49.1578 24.8594L48.822 25.6519L49.5355 25.9438Z" fill="white"/>
<path d="M83.5735 38.7487L84.4968 38.2481C84.5808 38.4984 84.7067 38.6652 84.8746 38.7904C85.0424 38.9155 85.2943 38.9989 85.588 38.9989C85.8399 38.9989 86.0497 38.9572 86.1756 38.8321C86.3015 38.7069 86.3855 38.5401 86.3855 38.3733C86.3855 38.123 86.1337 37.8727 85.63 37.7059C85.4621 37.6642 85.3362 37.5808 85.2103 37.5391C84.6647 37.3305 84.3289 37.0802 84.1191 36.8717C83.9092 36.6631 83.7833 36.3712 83.7833 36.0375C83.7833 35.5787 83.9512 35.245 84.287 34.953C84.6227 34.6611 85.0844 34.5359 85.672 34.5359C86.0497 34.5359 86.3855 34.6193 86.6373 34.7445C86.9311 34.8696 87.099 35.0782 87.2249 35.3284L86.4274 35.8706C86.3855 35.7038 86.2596 35.5787 86.1337 35.4953C85.9658 35.4118 85.7979 35.3701 85.63 35.3701C85.4202 35.3701 85.2523 35.4118 85.1264 35.537C85.0005 35.6204 84.9165 35.7872 84.9165 35.9541C84.9165 36.2043 85.2103 36.4546 85.7979 36.6631C85.9658 36.7466 86.1337 36.7883 86.2176 36.83C86.6793 36.9968 87.015 37.2054 87.1829 37.4556C87.3928 37.6642 87.4767 37.9562 87.4767 38.2898C87.4767 38.7904 87.3088 39.1658 86.9311 39.4577C86.5534 39.7497 86.0917 39.8748 85.4621 39.8748C84.9585 39.8748 84.5808 39.7914 84.245 39.6246C83.9932 39.3743 83.7414 39.124 83.5735 38.7487Z" fill="#B8B7D0"/>
<path d="M88.484 39.6246V31.6162H89.5332V35.537C89.7431 35.2033 90.0369 34.953 90.3307 34.7862C90.6245 34.6193 91.0022 34.5359 91.4639 34.5359C91.8416 34.5359 92.1354 34.5776 92.3872 34.7028C92.639 34.8279 92.8489 34.9947 92.9748 35.2033C93.0587 35.3284 93.1427 35.4953 93.1427 35.6621C93.1846 35.8289 93.1846 36.1626 93.1846 36.6214V39.6246H92.0514V37.1219C92.0514 36.4546 91.9675 36.0375 91.7996 35.8289C91.6317 35.6204 91.3799 35.4953 90.9602 35.4953C90.7084 35.4953 90.4566 35.537 90.2467 35.6204C90.0369 35.7038 89.869 35.8706 89.7431 36.0375C89.6591 36.1626 89.6172 36.2877 89.5752 36.4963C89.5332 36.6631 89.5332 36.9968 89.5332 37.3722V39.6246H88.484Z" fill="#B8B7D0"/>
<path d="M94.1919 37.2054C94.1919 36.83 94.2759 36.4963 94.4018 36.2043C94.5277 35.8706 94.7376 35.6204 94.9894 35.3701C95.2412 35.1199 95.535 34.953 95.8707 34.7862C96.2065 34.6611 96.5423 34.5776 96.92 34.5776C97.2977 34.5776 97.6335 34.6611 97.9693 34.7862C98.305 34.9113 98.5988 35.1199 98.8506 35.3701C99.1024 35.6204 99.3123 35.9124 99.4382 36.246C99.5641 36.5797 99.6481 36.9134 99.6481 37.2471C99.6481 37.6225 99.5641 37.9562 99.4382 38.2898C99.3123 38.6235 99.1024 38.8738 98.8506 39.124C98.5988 39.3743 98.263 39.5828 97.9273 39.708C97.5915 39.8331 97.2558 39.9165 96.878 39.9165C96.5003 39.9165 96.1645 39.8331 95.8288 39.708C95.493 39.5828 95.1992 39.3743 94.9474 39.124C94.6956 38.8738 94.4857 38.5818 94.3598 38.2481C94.2759 37.8727 94.1919 37.5391 94.1919 37.2054ZM98.4729 37.2054C98.4729 36.7466 98.305 36.3712 98.0112 36.0375C97.7174 35.7038 97.3397 35.5787 96.92 35.5787C96.5003 35.5787 96.1226 35.7455 95.8288 36.0375C95.535 36.3295 95.3671 36.7466 95.3671 37.2054C95.3671 37.6642 95.535 38.0396 95.8288 38.3733C96.1226 38.7069 96.5003 38.8321 96.92 38.8321C97.3397 38.8321 97.7174 38.6652 98.0112 38.3733C98.305 38.0813 98.4729 37.6642 98.4729 37.2054Z" fill="#B8B7D0"/>
<path d="M105.356 39.9582L104.223 37.4139C104.139 37.2054 104.055 37.0385 104.013 36.8717C103.971 36.7049 103.887 36.5797 103.845 36.4129C103.761 36.6214 103.719 36.83 103.635 36.9968C103.593 37.1637 103.509 37.2888 103.509 37.3722L102.334 39.9582L99.7739 34.7445H100.991L102.124 37.122C102.166 37.2054 102.208 37.3722 102.25 37.5391C102.292 37.7059 102.334 37.9144 102.376 38.123C102.376 37.9979 102.418 37.8727 102.418 37.7476C102.46 37.6225 102.502 37.4556 102.628 37.2471L103.845 34.5776H103.929L105.146 37.2471C105.23 37.4139 105.272 37.5808 105.314 37.7059C105.356 37.831 105.356 37.9979 105.398 38.123C105.44 37.9562 105.482 37.7476 105.524 37.5808C105.566 37.4139 105.608 37.2471 105.692 37.122L106.783 34.7445H108L105.356 39.9582Z" fill="#B8B7D0"/>
<path d="M6.64155 1.83525V12.2628H4.66895V1.83525H1.43726V0.166841H9.83128V1.83525H6.64155Z" fill="#20ADE4"/>
<path d="M25.9061 12.2211H24.0594V0.125124H27.0393C27.9207 0.125124 28.5922 0.166834 29.0119 0.250254C29.4316 0.333674 29.8093 0.500515 30.1031 0.709066C30.4808 1.00104 30.7746 1.37643 30.9845 1.83524C31.2363 2.37747 31.3202 2.9197 31.3202 3.46193C31.3202 4.00417 31.2363 4.58811 31.0264 5.04692C30.8166 5.54744 30.5228 5.92283 30.1451 6.17309C29.8513 6.38164 29.4735 6.54848 29.0538 6.6319C28.6341 6.71532 27.9626 6.75704 27.0813 6.75704H25.9061V12.2211ZM26.032 5.21376H26.5356C27.6269 5.21376 28.3823 5.08863 28.7181 4.83837C29.0958 4.58811 29.2637 4.17101 29.2637 3.58706C29.2637 2.96141 29.0538 2.5026 28.6761 2.21063C28.2984 1.91866 27.5849 1.79353 26.5356 1.79353H26.032V5.21376Z" fill="#20ADE4"/>
<path d="M14.6997 0.208549C12.9789 0.709071 11.5939 1.91866 10.8384 3.54536C10.7545 3.7122 10.8804 3.92075 11.0483 3.92075H16.6723C16.8821 3.92075 16.9661 3.7122 16.8821 3.54536L14.9515 0.333679C14.9095 0.250259 14.7836 0.208549 14.6997 0.208549Z" fill="#20ADE4"/>
<path d="M21.1212 2.41918C20.9952 2.25234 20.7854 2.29405 20.7015 2.46089L18.8967 6.17309V6.2148L18.0993 7.67466C18.0154 7.8415 18.1413 8.05005 18.3092 8.05005H21.9606C22.0865 8.05005 22.1704 7.96663 22.2124 7.88321C22.3803 7.34098 22.4222 6.79875 22.4222 6.2148C22.3803 4.83837 21.9186 3.50364 21.1212 2.41918Z" fill="#20ADE4"/>
<path d="M18.1832 12.0959C19.7781 11.5537 21.0792 10.3858 21.7927 8.84254C21.8766 8.6757 21.7507 8.46715 21.5828 8.46715H16.0008C15.7909 8.46715 15.665 8.6757 15.7909 8.88425L17.8895 12.0125C17.9734 12.0959 18.0993 12.1376 18.1832 12.0959Z" fill="#20ADE4"/>
<path d="M17.5957 3.92075L18.3931 5.3389C18.477 5.50574 18.7289 5.50574 18.8128 5.3389L20.4496 1.96038C20.4916 1.87696 20.4916 1.75183 20.4077 1.66841C19.2745 0.583942 17.8475 0 16.2946 0C16.0847 0 15.8749 0 15.665 0.0417101C15.4972 0.0417101 15.3713 0.250261 15.4972 0.417101L17.5957 3.92075Z" fill="#20ADE4"/>
<path d="M13.7344 6.21481L14.5738 4.75496C14.6577 4.58812 14.5318 4.37956 14.3639 4.37956H10.7125C10.5866 4.37956 10.5027 4.46298 10.4607 4.5464C10.2928 5.08864 10.2509 5.63087 10.2509 6.21481C10.2509 7.50782 10.6286 8.75913 11.384 9.80188C11.51 9.96872 11.7198 9.92701 11.8037 9.76017L13.7344 6.21481Z" fill="#20ADE4"/>
<path d="M14.9935 8.46716L14.1961 7.04901C14.1121 6.88217 13.8603 6.88217 13.7764 7.04901L12.0136 10.3024C11.9717 10.3858 11.9717 10.511 12.0556 10.5944C13.1888 11.7623 14.7417 12.3879 16.3366 12.3879C16.6303 12.3879 16.9241 12.3462 17.2179 12.3045C17.3858 12.2628 17.4698 12.0542 17.3858 11.9291L14.9935 8.46716Z" fill="#20ADE4"/>
</svg>
