<svg width="39" height="39" viewBox="0 0 39 39" fill="none" xmlns="http://www.w3.org/2000/svg">
<rect width="39" height="39" rx="19.5" transform="matrix(8.74228e-08 1 1 -8.74228e-08 0 0)" fill="white" fill-opacity="0.1"/>
<path d="M13 18.5C12.4477 18.5 12 18.9477 12 19.5C12 20.0523 12.4477 20.5 13 20.5L13 18.5ZM26.7071 20.2071C27.0976 19.8166 27.0976 19.1834 26.7071 18.7929L20.3431 12.4289C19.9526 12.0384 19.3195 12.0384 18.9289 12.4289C18.5384 12.8195 18.5384 13.4526 18.9289 13.8431L24.5858 19.5L18.9289 25.1569C18.5384 25.5474 18.5384 26.1805 18.9289 26.5711C19.3195 26.9616 19.9526 26.9616 20.3431 26.5711L26.7071 20.2071ZM13 20.5L26 20.5L26 18.5L13 18.5L13 20.5Z" fill="#B8B7D0"/>
</svg>
