<svg width="39" height="39" viewBox="0 0 39 39" fill="none" xmlns="http://www.w3.org/2000/svg">
<rect x="39" width="39" height="39" rx="19.5" transform="rotate(90 39 0)" fill="white" fill-opacity="0.1"/>
<path d="M26 18.5C26.5523 18.5 27 18.9477 27 19.5C27 20.0523 26.5523 20.5 26 20.5L26 18.5ZM12.2929 20.2071C11.9024 19.8166 11.9024 19.1834 12.2929 18.7929L18.6569 12.4289C19.0474 12.0384 19.6805 12.0384 20.0711 12.4289C20.4616 12.8195 20.4616 13.4526 20.0711 13.8431L14.4142 19.5L20.0711 25.1569C20.4616 25.5474 20.4616 26.1805 20.0711 26.5711C19.6805 26.9616 19.0474 26.9616 18.6569 26.5711L12.2929 20.2071ZM26 20.5L13 20.5L13 18.5L26 18.5L26 20.5Z" fill="#B8B7D0"/>
</svg>
