<svg width="155" height="28" viewBox="0 0 155 28" fill="none" xmlns="http://www.w3.org/2000/svg">
<path d="M49.6959 18.6576C47.4478 18.6576 46.1298 16.8979 46.1298 14.9053C46.1298 12.6022 47.6287 11.0753 49.6959 11.0753C50.7813 11.0753 51.5049 11.5153 52.1768 11.9293L53.2621 9.98851C52.4869 9.49682 51.1948 8.90161 49.8252 8.90161C46.259 8.90161 43.7008 11.4376 43.7008 14.9053C43.7008 18.347 46.3107 20.909 49.8252 20.909C51.324 20.909 52.4094 20.2879 53.2621 19.7704L52.1768 17.8295C51.5049 18.2953 50.4971 18.6576 49.6959 18.6576ZM57.3192 3.59659H59.6191V20.5985H57.3192V3.59659ZM72.8758 9.26391L72.6174 10.2473C71.9972 9.57446 70.6793 8.90161 69.2838 8.90161C66.4413 8.90161 63.8313 11.153 63.8313 14.8276C63.8313 18.6317 66.4413 20.9349 69.2838 20.9349C70.6793 20.9349 71.9455 20.262 72.6174 19.5892L72.8758 20.6243H74.8139V9.34155H72.8758V9.26391ZM72.669 14.9829C72.669 17.5708 71.0928 18.7352 69.5939 18.7352C68.0693 18.7352 66.3121 17.7002 66.3121 14.8535C66.3121 13.0421 67.2682 11.1012 69.413 11.1012C71.0411 11.1012 72.669 12.421 72.669 14.8535V14.9829ZM83.0315 15.8887C84.6078 16.3027 85.2797 16.6133 85.2797 17.4155C85.2797 18.0366 84.737 18.6835 83.4709 18.6835C82.308 18.6835 81.3518 18.2695 80.4474 17.7778L79.4137 19.7186C80.2148 20.2103 81.9979 20.8831 83.4709 20.8831C86.0034 20.8831 87.476 19.1751 87.476 17.4414C87.476 14.4653 84.5561 13.9996 83.781 13.7408C82.1529 13.3009 81.7394 12.9645 81.7394 12.2916C81.7394 11.567 82.3596 11.0753 83.5484 11.0753C84.582 11.0753 85.3572 11.3859 86.0812 11.7482L87.1663 9.80736C86.1326 9.36743 84.9179 8.90161 83.5484 8.90161C81.0675 8.90161 79.5688 10.6613 79.5688 12.2916C79.5688 14.9053 81.7653 15.5781 83.0315 15.8887ZM95.3579 15.8887C96.9341 16.3027 97.6058 16.6133 97.6058 17.4155C97.6058 18.0366 97.0633 18.6835 95.7968 18.6835C94.6339 18.6835 93.6781 18.2695 92.7737 17.7778L91.74 19.7186C92.5409 20.2103 94.3242 20.8831 95.7968 20.8831C98.3297 20.8831 99.8024 19.1751 99.8024 17.4414C99.8024 14.4653 96.8827 13.9996 96.1075 13.7408C94.4791 13.3009 94.0658 12.9645 94.0658 12.2916C94.0658 11.567 94.6861 11.0753 95.8747 11.0753C96.9084 11.0753 97.6837 11.3859 98.4076 11.7482L99.4926 9.80736C98.4589 9.36743 97.2447 8.90161 95.8747 8.90161C93.394 8.90161 91.8949 10.6613 91.8949 12.2916C91.8692 14.9053 94.0914 15.5781 95.3579 15.8887ZM109.777 8.90161C108.382 8.90161 107.116 9.57446 106.444 10.2473L106.186 9.21216H104.248V25.2824H106.418V19.6927L106.496 19.641C107.116 20.3138 108.382 20.8573 109.597 20.8573C112.516 20.8573 115.23 18.9681 115.23 14.75C115.282 10.9718 112.672 8.90161 109.777 8.90161ZM109.519 18.7352C108.02 18.7352 106.444 17.5708 106.444 14.9829V14.8535C106.444 12.3693 108.072 11.1012 109.7 11.1012C111.87 11.1012 112.801 13.0421 112.801 14.8535C112.801 17.7002 111.044 18.7352 109.519 18.7352ZM128.099 9.26391L127.841 10.2991C127.221 9.62621 125.903 8.95337 124.507 8.95337C121.665 8.95337 119.055 11.2047 119.055 14.8794C119.055 18.6835 121.665 20.9866 124.507 20.9866C125.903 20.9866 127.168 20.3138 127.841 19.641L128.099 20.6761H130.038V9.39331H128.099V9.26391ZM127.867 14.9829C127.867 17.5708 126.29 18.7352 124.791 18.7352C123.266 18.7352 121.51 17.7002 121.51 14.8535C121.51 13.0421 122.466 11.1012 124.611 11.1012C126.238 11.1012 127.867 12.421 127.867 14.8535V14.9829ZM138.255 15.8887C139.831 16.3027 140.503 16.6133 140.503 17.4155C140.503 18.0366 139.96 18.6835 138.694 18.6835C137.531 18.6835 136.575 18.2695 135.671 17.7778L134.637 19.7186C135.438 20.2103 137.221 20.8831 138.694 20.8831C141.227 20.8831 142.699 19.1751 142.699 17.4414C142.699 14.4653 139.78 13.9996 139.004 13.7408C137.376 13.3009 136.963 12.9645 136.963 12.2916C136.963 11.567 137.583 11.0753 138.772 11.0753C139.805 11.0753 140.581 11.3859 141.305 11.7482L142.39 9.80736C141.356 9.36743 140.142 8.90161 138.772 8.90161C136.291 8.90161 134.792 10.6613 134.792 12.2916C134.766 14.9053 136.988 15.5781 138.255 15.8887ZM150.556 15.8887C152.132 16.3027 152.803 16.6133 152.803 17.4155C152.803 18.0366 152.261 18.6835 150.994 18.6835C149.832 18.6835 148.876 18.2695 147.971 17.7778L146.938 19.7186C147.739 20.2103 149.522 20.8831 150.994 20.8831C153.527 20.8831 155 19.1751 155 17.4414C155 14.4653 152.08 13.9996 151.305 13.7408C149.677 13.3009 149.263 12.9645 149.263 12.2916C149.263 11.567 149.884 11.0753 151.072 11.0753C152.106 11.0753 152.881 11.3859 153.604 11.7482L154.69 9.80736C153.657 9.36743 152.441 8.90161 151.072 8.90161C148.592 8.90161 147.092 10.6613 147.092 12.2916C147.092 14.9053 149.315 15.5781 150.556 15.8887Z" fill="white" fill-opacity="0.5"/>
<path d="M23.9809 0H19.8204C19.0969 0 18.3733 0.543364 18.2958 1.26796L17.6756 4.244C17.5981 4.78736 17.1329 5.14966 16.5902 5.14966H11.9905C5.76266 5.2273 0 9.93711 0 16.6136C0 22.5656 4.96157 28 12.0939 28H16.797C17.5205 28 18.2441 27.4566 18.3216 26.732L18.9418 23.756C19.0194 23.2126 19.4845 22.8503 20.0271 22.8503H24.0842C31.0357 22.8503 36.1781 17.5194 36.1781 11.4639C36.0747 4.78736 30.3896 0 23.9809 0ZM23.8775 18.4251H18.9935C18.27 18.4251 17.6497 18.9686 17.4688 19.6932L16.8486 22.5915C16.7711 23.1349 16.306 23.4972 15.7634 23.4972H12.1455C8.45017 23.4972 4.47058 20.8835 4.47058 16.536C4.47058 12.5508 7.98503 9.57481 12.1455 9.57481H17.7273C18.4508 9.57481 19.0711 9.03136 19.2519 8.30685L19.8721 5.40845C19.9496 4.865 20.4148 4.5027 20.9574 4.5027H23.8517C27.7279 4.5027 31.5266 7.21995 31.5266 11.4639C31.4749 15.3456 28.1414 18.4251 23.8775 18.4251Z" fill="white" fill-opacity="0.5"/>
</svg>
