<svg width="16" height="15" viewBox="0 0 16 15" fill="none" xmlns="http://www.w3.org/2000/svg">
<path fill-rule="evenodd" clip-rule="evenodd" d="M8 1C4.40987 1 1.5 3.90987 1.5 7.5C1.5 11.0901 4.40987 14 8 14C11.5901 14 14.5 11.0901 14.5 7.5C14.5 3.90987 11.5901 1 8 1ZM0.5 7.5C0.5 3.35759 3.85759 0 8 0C12.1424 0 15.5 3.35759 15.5 7.5C15.5 11.6424 12.1424 15 8 15C3.85759 15 0.5 11.6424 0.5 7.5Z" fill="white"/>
<path fill-rule="evenodd" clip-rule="evenodd" d="M7.74414 3.85645C8.02028 3.85645 8.24414 4.0803 8.24414 4.35645V7.74051L10.8533 9.29699C11.0904 9.43847 11.168 9.7454 11.0265 9.98255C10.885 10.2197 10.5781 10.2973 10.341 10.1558L7.48798 8.45384C7.33676 8.36363 7.24414 8.20053 7.24414 8.02445V4.35645C7.24414 4.0803 7.468 3.85645 7.74414 3.85645Z" fill="white"/>
</svg>
