<svg width="40" height="33" viewBox="0 0 40 33" fill="none" xmlns="http://www.w3.org/2000/svg">
<path opacity="0.5" d="M15.6156 0.364258C13.1532 1.843 9.06907 4.20899 5.76577 7.58052C2.58258 10.8929 0 15.0925 0 20.2386C0 27.514 2.7027 32.3643 9.60961 32.3643C11.8318 32.3643 13.5135 31.6545 14.7748 30.2349C16.036 28.7561 16.6967 27.2182 16.6967 25.562C16.6967 20.8892 13.6937 18.4641 8.70871 18.4641H5.82583C6.30631 14.3827 7.44745 12.0759 9.66967 9.70991C12.0721 7.16648 13.994 6.04263 17.7778 3.91324L15.6156 0.364258ZM37.8378 0.364258C35.3754 1.843 31.2913 4.20899 27.988 7.58052C24.8048 10.8929 22.2222 15.0925 22.2222 20.2386C22.2222 27.514 24.9249 32.3643 31.8318 32.3643C34.0541 32.3643 35.7357 31.6545 36.997 30.2349C38.2583 28.7561 38.9189 27.2182 38.9189 25.562C38.9189 20.8892 35.9159 18.4641 30.9309 18.4641H28.048C28.5285 14.3827 29.5496 12.1351 31.8919 9.70991C34.2943 7.16648 36.2162 6.04263 40 3.91324L37.8378 0.364258Z" fill="#B8B7D0"/>
</svg>
