<svg width="155" height="22" viewBox="0 0 155 22" fill="none" xmlns="http://www.w3.org/2000/svg">
<path d="M16.1049 12.3978C16.1651 12.4961 16.1858 12.6128 16.1631 12.7252C15.9506 13.6717 15.4335 14.5262 14.6882 15.163C14.6473 15.1933 14.6129 15.2312 14.587 15.2745C14.5777 15.2944 14.5729 15.316 14.5729 15.3378C14.5729 15.3596 14.5777 15.3812 14.587 15.401C14.6019 15.418 14.6206 15.4313 14.6417 15.4399C14.6628 15.4485 14.6856 15.4522 14.7084 15.4506C14.8164 15.4224 14.9207 15.3825 15.0196 15.3316C15.4567 15.0882 15.843 14.7659 16.158 14.3818C16.3477 14.1561 16.5349 13.9304 16.7146 13.6973C17.0528 13.2369 17.3031 12.7202 17.4533 12.1722C17.5899 11.7283 17.7062 11.2794 17.8479 10.8355C17.9058 10.6728 17.976 10.5144 18.0579 10.3619C18.0909 10.3149 18.1291 10.2716 18.1717 10.2329H18.2072C18.2426 10.3494 18.2856 10.4611 18.3109 10.5801C18.3771 10.9545 18.3864 11.3363 18.3387 11.7134C18.2862 12.2042 18.1837 12.6885 18.0326 13.1592C17.9268 13.4485 17.784 13.7235 17.6076 13.9775C17.1643 14.6938 16.6407 15.3592 16.0467 15.9615C15.6091 16.3757 15.1359 16.7524 14.6325 17.0874C14.5958 17.1058 14.5624 17.1301 14.5339 17.1593C14.5044 17.194 14.4891 17.2381 14.4909 17.2833C14.5014 17.3034 14.5169 17.3207 14.5358 17.3337C14.5547 17.3467 14.5767 17.3549 14.5996 17.3577C14.7054 17.357 14.8108 17.3437 14.9133 17.318C15.3807 17.1859 15.8179 16.967 16.201 16.6732C17.2725 15.8988 18.1427 14.8878 18.7409 13.7221C19.1222 12.9615 19.3694 12.1432 19.4721 11.3017C19.5336 10.7705 19.5396 10.2346 19.4898 9.70223C19.4464 9.42941 19.4549 9.15107 19.5151 8.88138C19.531 8.81956 19.5539 8.75964 19.5834 8.70279C19.6517 8.57382 19.7504 8.56641 19.8161 8.70279C19.8853 8.83188 19.9364 8.96954 19.9679 9.11199C20.1068 9.79413 20.1502 10.4916 20.0969 11.1852C19.9987 12.3121 19.7097 13.415 19.2419 14.4487C18.768 15.5131 18.0565 16.4597 17.1598 17.2188C16.8689 17.4668 16.5906 17.7148 16.2896 17.9479C15.928 18.2056 15.5406 18.4266 15.1334 18.6075C14.235 19.0451 13.2788 19.3581 12.2924 19.5375C11.6879 19.6403 11.0739 19.6803 10.4608 19.6565C10.1598 19.6565 9.85618 19.6367 9.55519 19.6218C8.87456 19.5849 8.20306 19.4512 7.56162 19.225C6.63281 18.9082 5.74006 18.4976 4.89775 18C3.91544 17.4096 3.07766 16.6146 2.44381 15.6713C2.1309 15.2277 1.85832 14.7581 1.62921 14.2677C1.61753 14.2386 1.59874 14.2127 1.57447 14.1924C1.55021 14.1721 1.52122 14.1579 1.49007 14.1512C1.32371 14.1106 1.16894 14.0335 1.03745 13.9256C0.905969 13.8178 0.801219 13.682 0.731119 13.5287C0.543529 13.0796 0.397891 12.6148 0.295991 12.14C0.110589 11.3733 0.0113335 10.5892 0 9.80142C0.00759831 9.30265 0.0541151 8.80523 0.139141 8.31344C0.235169 7.64527 0.404816 6.98922 0.645106 6.35683C0.857625 5.80339 1.15631 5.28556 1.53054 4.82176C1.74811 4.55393 1.92773 4.25386 2.14023 3.98107C3.48892 2.23375 5.41986 1.00521 7.59706 0.509213C8.017 0.410017 8.437 0.30586 8.862 0.228983C9.24144 0.159546 9.62094 0.114908 10.0105 0.0801893C10.4608 0.0405111 10.9111 0.00579262 11.364 0.000832822C13.1807 -0.0239646 14.9604 0.505548 16.4566 1.51605C16.6271 1.61714 16.7807 1.74346 16.9119 1.89052C17.0088 2.00625 17.0733 2.1447 17.0991 2.29226C17.1091 2.32698 17.1294 2.35803 17.1573 2.38154C17.514 2.71881 17.8935 3.03871 18.2224 3.40078C18.745 3.9605 19.1232 4.63485 19.3254 5.36734C19.418 5.66318 19.4502 5.97402 19.4203 6.28209C19.3903 6.59013 19.2987 6.88942 19.1508 7.16279C18.9034 7.57113 18.5554 7.9122 18.1389 8.15476C17.6754 8.46385 17.1195 8.61144 16.5602 8.57382C16.0374 8.55042 15.5412 8.34156 15.1638 7.98609C14.7673 7.58222 14.3448 7.20366 13.8989 6.85278C13.6054 6.63455 13.3018 6.42876 12.9957 6.23283C12.6257 6.01485 12.2157 5.86994 11.789 5.80628C11.3036 5.71924 10.8092 5.6901 10.3166 5.71949C9.23981 5.7396 8.19794 6.09771 7.34406 6.74122C6.70419 7.21511 6.17752 7.82024 5.8009 8.51433C5.5876 8.93548 5.45308 9.39075 5.40371 9.85846C5.36252 10.147 5.33887 10.4376 5.33288 10.7289C5.35674 11.5592 5.57761 12.3726 5.97799 13.1046C6.27381 13.6725 6.6675 14.1859 7.14169 14.6224C7.58275 15.0108 8.07137 15.3441 8.59637 15.6143C9.19387 15.9318 9.85375 16.1203 10.5317 16.1673C11.4219 16.2584 12.3212 16.1261 13.145 15.7829C13.5398 15.601 13.9034 15.3601 14.2227 15.0687C14.7742 14.6037 15.2368 14.0461 15.5888 13.422C15.7204 13.1964 15.8114 12.9484 15.9227 12.7104C15.9556 12.6384 15.9936 12.5665 16.0315 12.4971C16.0547 12.4634 16.0819 12.4326 16.1125 12.4053" fill="white" fill-opacity="0.5"/>
<path d="M148.594 8.61847C150.416 8.61847 151.63 9.94771 151.63 11.9118C151.63 13.8759 150.416 15.1853 148.594 15.1853C146.773 15.1853 145.539 13.8759 145.539 11.8919C145.539 9.90801 146.753 8.61847 148.594 8.61847ZM95.2656 8.42009C96.6825 8.42009 97.6131 9.19383 97.8363 10.4238H92.7156C92.9381 9.1839 93.8694 8.42009 95.2656 8.42009ZM49.3645 13.2608C49.3645 14.471 48.636 15.1853 47.3407 15.1853C46.0454 15.1853 45.2763 14.471 45.2763 13.2608V6.47586C45.2763 6.41006 45.2497 6.34702 45.2022 6.30046C45.1548 6.25396 45.0905 6.22786 45.0233 6.22786H42.3923C42.3252 6.22786 42.2609 6.25396 42.2135 6.30046C42.166 6.34702 42.1393 6.41006 42.1393 6.47586V13.3799C42.1393 16.3955 43.9406 17.9032 46.2073 17.9032C47.8264 17.9032 48.9193 16.9311 49.3848 15.463V17.3477C49.3884 17.4124 49.4162 17.4734 49.4629 17.5191C49.5096 17.5649 49.5718 17.5921 49.6378 17.5957H52.289C52.3561 17.5957 52.4205 17.5696 52.4679 17.5231C52.5153 17.4766 52.542 17.4135 52.542 17.3477V6.47586C52.542 6.41006 52.5153 6.34702 52.4679 6.30046C52.4205 6.25396 52.3561 6.22786 52.289 6.22786H49.6277C49.5605 6.22786 49.4962 6.25396 49.4488 6.30046C49.4013 6.34702 49.3746 6.41006 49.3746 6.47586L49.3645 13.2608ZM76.6056 13.2608C76.6056 14.471 75.8769 15.1853 74.5819 15.1853C73.2863 15.1853 72.5175 14.471 72.5175 13.2608V6.47586C72.5175 6.41006 72.4906 6.34702 72.4431 6.30046C72.3963 6.25396 72.3319 6.22786 72.2644 6.22786H69.6338C69.5663 6.22786 69.5019 6.25396 69.4544 6.30046C69.4069 6.34702 69.3807 6.41006 69.3807 6.47586V13.3799C69.3807 16.3955 71.1819 17.9032 73.4488 17.9032C75.0675 17.9032 76.1606 16.9311 76.6256 15.463V17.3477C76.6294 17.4124 76.6575 17.4734 76.7044 17.5191C76.7506 17.5649 76.8131 17.5921 76.8788 17.5957H79.53C79.5975 17.5957 79.6619 17.5696 79.7094 17.5231C79.7563 17.4766 79.7831 17.4135 79.7831 17.3477V6.47586C79.7831 6.41006 79.7563 6.34702 79.7094 6.30046C79.6619 6.25396 79.5975 6.22786 79.53 6.22786H76.8688C76.8019 6.22786 76.7375 6.25396 76.69 6.30046C76.6425 6.34702 76.6156 6.41006 76.6156 6.47586L76.6056 13.2608ZM82.3738 17.3477C82.3738 17.4135 82.4007 17.4766 82.4475 17.5231C82.495 17.5696 82.5594 17.5957 82.6269 17.5957H85.2375C85.3044 17.5957 85.3688 17.5696 85.4163 17.5231C85.4638 17.4766 85.4906 17.4135 85.4906 17.3477V11.1182C85.4906 9.55089 86.5025 9.25332 87.9194 9.25332H88.9713C89.0388 9.25332 89.1031 9.22722 89.1507 9.18072C89.1982 9.13422 89.2244 9.07111 89.2244 9.00531V6.47586C89.2244 6.41006 89.1982 6.34702 89.1507 6.30046C89.1031 6.25396 89.0388 6.22786 88.9713 6.22786H88.7188C87.0188 6.22786 85.9663 7.00159 85.4806 8.88633V6.48579C85.4806 6.41999 85.4538 6.35688 85.4063 6.31038C85.3588 6.26388 85.2944 6.23778 85.2275 6.23778H82.6169C82.5494 6.23778 82.485 6.26388 82.4375 6.31038C82.39 6.35688 82.3638 6.41999 82.3638 6.48579L82.3738 17.3477ZM123.033 17.3477C123.033 17.4135 123.06 17.4766 123.108 17.5231C123.154 17.5696 123.219 17.5957 123.286 17.5957H125.917C125.984 17.5957 126.049 17.5696 126.096 17.5231C126.143 17.4766 126.17 17.4135 126.17 17.3477V10.4238C126.17 9.31287 126.798 8.61847 127.991 8.61847C129.186 8.61847 129.854 9.31287 129.854 10.4238V17.3477C129.854 17.4135 129.88 17.4766 129.928 17.5231C129.975 17.5696 130.039 17.5957 130.106 17.5957H132.758C132.825 17.5957 132.889 17.5696 132.937 17.5231C132.984 17.4766 133.011 17.4135 133.011 17.3477V10.4238C133.011 9.31287 133.658 8.61847 134.833 8.61847C136.006 8.61847 136.694 9.31287 136.694 10.4238V17.3477C136.698 17.4124 136.726 17.4734 136.773 17.5191C136.819 17.5649 136.881 17.5921 136.947 17.5957H139.578C139.645 17.5957 139.709 17.5696 139.757 17.5231C139.804 17.4766 139.831 17.4135 139.831 17.3477V10.3246C139.831 7.38843 138.06 5.9005 135.804 5.9005C133.901 5.9005 132.93 7.11071 132.424 8.6284C132.281 7.87133 131.876 7.18594 131.276 6.6887C130.677 6.19146 129.92 5.91293 129.135 5.9005C127.476 5.9005 126.727 6.89248 126.16 8.36054V6.47586C126.16 6.41006 126.133 6.34702 126.086 6.30046C126.038 6.25396 125.974 6.22786 125.907 6.22786H123.276C123.209 6.22786 123.144 6.25396 123.097 6.30046C123.049 6.34702 123.023 6.41006 123.023 6.47586L123.033 17.3477ZM154.99 11.9118C154.99 8.57878 152.986 5.9005 149.768 5.9005C147.664 5.9005 146.044 6.99167 145.539 8.53914V6.47586C145.539 6.41006 145.512 6.34702 145.464 6.30046C145.417 6.25396 145.353 6.22786 145.286 6.22786H142.644C142.578 6.22786 142.513 6.25396 142.466 6.30046C142.418 6.34702 142.391 6.41006 142.391 6.47586V21.7521C142.391 21.8178 142.418 21.8809 142.466 21.9274C142.513 21.9739 142.578 22 142.644 22H145.296C145.363 22 145.427 21.9739 145.474 21.9274C145.522 21.8809 145.549 21.8178 145.549 21.7521V15.3043C146.054 16.8518 147.674 17.9231 149.778 17.9231C152.996 17.9231 155 15.2646 155 11.9118H154.99ZM111.153 11.2422L113.194 5.84099L115.241 11.2422H111.153ZM101.034 11.9168C101.034 8.52425 98.9694 5.76659 95.2456 5.76659C91.7444 5.76659 89.4575 8.52425 89.4575 11.9168C89.4575 15.4283 92.0075 18.0471 95.8931 18.0471C97.9981 18.0471 99.7994 17.1345 100.649 15.9243C100.671 15.896 100.688 15.8635 100.696 15.8289C100.706 15.7943 100.708 15.7583 100.701 15.723C100.696 15.6877 100.683 15.654 100.664 15.6238C100.644 15.5935 100.619 15.5675 100.589 15.5473L98.8175 13.9999C98.7931 13.9787 98.7644 13.9628 98.7331 13.9533C98.7019 13.9437 98.6688 13.9407 98.6363 13.9444C98.6044 13.9482 98.5725 13.9586 98.545 13.975C98.5169 13.9914 98.4925 14.0134 98.4738 14.0395C98.1713 14.4673 97.765 14.8145 97.2913 15.0501C96.8181 15.2856 96.2925 15.4019 95.7613 15.3886C94.2638 15.3886 92.8875 14.6942 92.685 12.7897H100.781C100.815 12.7927 100.849 12.7884 100.881 12.777C100.913 12.7656 100.943 12.7475 100.966 12.7238C100.991 12.7001 101.009 12.6716 101.021 12.6401C101.033 12.6086 101.037 12.575 101.034 12.5417V11.9168ZM59.7975 8.64329C59.7975 8.70903 59.8242 8.77213 59.8716 8.81863C59.9191 8.86513 59.9834 8.89123 60.0505 8.89123H61.7506V14.2181C61.7506 16.3607 62.8638 17.6106 65.1913 17.6106H67.3569C67.4238 17.6106 67.4882 17.5845 67.5357 17.538C67.5832 17.4915 67.6094 17.4284 67.6094 17.3626V15.1307C67.6125 15.0973 67.6081 15.0638 67.5969 15.0323C67.585 15.0009 67.5669 14.9722 67.5425 14.9486C67.5182 14.9249 67.4894 14.9067 67.4569 14.8954C67.425 14.884 67.3907 14.8797 67.3569 14.8827H65.8869C65.1581 14.8827 64.9156 14.6347 64.9156 14.0296V8.8962H67.3238C67.3906 8.8962 67.455 8.8701 67.5025 8.8236C67.55 8.77709 67.5769 8.71399 67.5769 8.64825V6.48579C67.5769 6.41999 67.55 6.35688 67.5025 6.31038C67.455 6.26388 67.3906 6.23778 67.3238 6.23778H64.9156V2.9643C64.9156 2.89853 64.8888 2.83546 64.8413 2.78895C64.7938 2.74244 64.7294 2.71631 64.6625 2.71631H61.9732C61.9392 2.71327 61.9049 2.71758 61.8728 2.72897C61.8407 2.74035 61.8115 2.75852 61.7874 2.78218C61.7633 2.80585 61.7447 2.83444 61.7332 2.86591C61.7215 2.89738 61.7171 2.93098 61.7202 2.9643V6.21793H60.0202C59.9531 6.21793 59.8887 6.24403 59.8413 6.29059C59.7938 6.33709 59.7672 6.40014 59.7672 6.46594L59.7975 8.64329ZM105.254 17.3725C105.243 17.3993 105.238 17.4282 105.241 17.4568C105.244 17.4855 105.254 17.5131 105.269 17.5373C105.285 17.5616 105.307 17.5818 105.332 17.5962C105.358 17.6107 105.386 17.619 105.416 17.6205H108.512C108.589 17.6228 108.665 17.5996 108.728 17.5546C108.79 17.5097 108.835 17.4456 108.856 17.3725L110.091 14.0792H116.324L117.589 17.3725C117.61 17.4456 117.655 17.5097 117.718 17.5546C117.78 17.5996 117.856 17.6228 117.933 17.6205H121.09C121.119 17.619 121.148 17.6107 121.174 17.5962C121.199 17.5818 121.221 17.5616 121.236 17.5373C121.252 17.5131 121.262 17.4855 121.264 17.4568C121.268 17.4282 121.263 17.3993 121.252 17.3725L115.585 2.94942C115.563 2.88373 115.519 2.827 115.46 2.78769C115.402 2.74836 115.333 2.72855 115.261 2.73119H111.234C111.16 2.72403 111.086 2.74172 111.023 2.78136C110.961 2.821 110.914 2.88025 110.89 2.94942L105.254 17.3725ZM34.7219 14.8331C32.0302 14.8331 30.2289 12.869 30.2289 10.1511C30.2289 7.43309 32.0302 5.469 34.7219 5.469C35.4617 5.47649 36.1897 5.65245 36.8482 5.98297C37.5068 6.31351 38.0779 6.78955 38.5167 7.37354C38.5353 7.40577 38.5615 7.43315 38.5932 7.45349C38.6248 7.47377 38.6609 7.48633 38.6985 7.49025C38.7361 7.49411 38.7741 7.48915 38.8093 7.47579C38.8446 7.46238 38.876 7.44093 38.9012 7.41324L41.0465 5.60788C41.0962 5.56326 41.1277 5.50246 41.1352 5.43678C41.1426 5.3711 41.1255 5.305 41.087 5.25077C39.7714 3.36604 37.5452 2.41376 34.732 2.41376C29.9253 2.41376 26.758 5.9253 26.758 10.1511C26.758 14.4165 29.9355 17.928 34.732 17.928C37.5452 17.928 39.9131 16.7575 41.087 15.0513C41.126 14.9973 41.1435 14.9311 41.136 14.8652C41.1285 14.7994 41.0967 14.7386 41.0465 14.6942L38.8809 12.9583C38.8577 12.931 38.8278 12.9099 38.7942 12.8967C38.7605 12.8834 38.724 12.8785 38.688 12.8824C38.6519 12.8864 38.6174 12.899 38.5875 12.9191C38.5576 12.9393 38.5333 12.9664 38.5167 12.998C38.0702 13.5681 37.4955 14.0294 36.8372 14.346C36.179 14.6626 35.4551 14.8259 34.7219 14.8232V14.8331ZM58.057 1.92771H55.3754C55.3414 1.92465 55.3072 1.92897 55.275 1.94036C55.2429 1.95174 55.2138 1.96991 55.1896 1.99358C55.1655 2.01724 55.147 2.04583 55.1353 2.0773C55.1237 2.10877 55.1193 2.14237 55.1224 2.17569V17.3527C55.1224 17.4184 55.1491 17.4815 55.1965 17.528C55.244 17.5745 55.3083 17.6007 55.3754 17.6007H58.0444C58.1115 17.6007 58.1758 17.5745 58.2233 17.528C58.2707 17.4815 58.2973 17.4184 58.2973 17.3527V2.17073C58.3005 2.1374 58.2961 2.10381 58.2845 2.07234C58.2728 2.04087 58.2543 2.01228 58.2301 1.98862C58.206 1.96496 58.1768 1.94678 58.1448 1.9354C58.1127 1.92401 58.0784 1.91969 58.0444 1.92274" fill="white" fill-opacity="0.5"/>
</svg>
