<svg width="180" height="32" viewBox="0 0 180 32" fill="none" xmlns="http://www.w3.org/2000/svg">
<path d="M31.1739 27.7139C31.133 27.7139 31.133 27.7139 31.0921 27.7547C30.683 28.9794 29.1694 30.0409 28.5148 30.4899C28.3512 30.6124 26.8376 31.5514 25.4467 31.6739C25.4058 31.6739 25.4058 31.7147 25.4058 31.7147C25.4058 31.7555 25.4058 31.7555 25.4467 31.7555C26.1421 31.9188 26.7557 32.0005 27.2057 32.0005C28.0648 32.0005 28.6375 31.7555 29.2103 31.3881C30.1512 30.7757 30.8466 29.9184 31.1739 27.7547C31.2148 27.7547 31.2148 27.7139 31.1739 27.7139Z" fill="#827FB7"/>
<path d="M32.2783 18.5684C32.2374 18.5684 32.2374 18.5684 32.2374 18.6092C31.1737 21.6302 28.1874 24.8145 25.8965 26.2842C24.8738 26.9374 23.4829 27.5906 21.9693 28.1213C21.7238 28.897 21.4375 29.6727 21.1511 30.4892C21.192 30.4892 21.2738 30.4892 21.3148 30.4892C23.3602 30.4892 25.4056 29.836 27.4101 28.5296C29.5783 27.1415 31.0919 25.3453 31.8692 23.2632C32.6465 21.2628 32.5237 19.4665 32.401 18.5684C32.3192 18.5684 32.2783 18.5684 32.2783 18.5684Z" fill="#827FB7"/>
<path d="M32.9737 6.19903C32.9737 6.1582 32.9328 6.1582 32.9328 6.1582C32.8919 6.1582 32.8919 6.1582 32.8919 6.19903C31.7056 11.3429 28.2692 15.0172 24.7102 17.7524C24.342 19.6712 23.8102 21.8349 23.1147 24.2844C23.442 24.0802 23.8102 23.8761 24.1375 23.6312C33.1783 17.7932 33.3419 9.465 32.9737 6.19903Z" fill="#827FB7"/>
<path d="M29.3329 7.21927C31.7874 4.40237 32.6874 2.19784 31.8692 0.973097C30.9283 -0.455766 27.8602 -0.292468 23.3602 1.34052C23.3193 1.34052 23.3193 1.38134 23.3193 1.42217C23.3193 1.46299 23.3602 1.46299 23.4012 1.46299C24.9557 1.21804 25.9784 1.38134 26.3875 1.99371C26.9602 2.85103 26.2648 4.44319 24.5057 6.4436C24.4648 6.48443 24.4239 6.52525 24.383 6.6069C24.8739 7.74999 25.2011 9.21968 25.283 11.1384C26.8784 9.83205 28.2284 8.48484 29.3329 7.21927Z" fill="#827FB7"/>
<path d="M22.8693 2.6056C22.2966 1.70745 20.1285 1.99323 17.3467 3.13632C18.7785 2.89137 20.9876 2.89137 22.7057 4.27941C23.0739 3.58539 23.1148 3.01384 22.8693 2.6056Z" fill="#827FB7"/>
<path d="M17.9604 28.9386C17.3876 28.9794 16.8149 28.9794 16.2831 28.9386C16.2422 28.9386 16.2422 28.9386 16.2422 28.9794C16.2422 29.0202 16.2422 29.0202 16.2831 29.061C16.6104 29.2652 17.1013 29.5509 17.7149 29.7959C18.5331 30.1225 19.5558 30.4083 20.783 30.4899C20.9058 30.4899 21.0285 30.4899 21.1512 30.4899C21.4376 29.6734 21.7239 28.8569 21.9694 28.1221C20.6194 28.5303 19.2285 28.8161 17.9604 28.9386Z" fill="#827FB7"/>
<path d="M21.683 19.8741C21.3557 20.0782 20.9875 20.3231 20.6603 20.5272C16.3648 23.1808 10.8422 25.7528 4.62405 24.5281C4.58314 24.5281 4.58314 24.5281 4.54224 24.5689C4.54224 24.6097 4.54224 24.6097 4.58314 24.6505C6.21949 25.5895 9.41037 27.0592 13.5012 27.0592C15.1376 27.0592 16.9785 26.8142 18.8603 26.2019C20.2103 25.7936 21.6421 25.1813 23.0739 24.3239C23.8102 21.8745 24.3011 19.7108 24.6693 17.792C23.6875 18.5268 22.6648 19.2209 21.683 19.8741Z" fill="#827FB7"/>
<path d="M22.5012 8.56603C20.9467 9.95407 19.1058 11.3829 17.0604 12.7301C13.9922 14.7306 10.8832 16.2819 8.30594 17.0576C5.7287 17.8332 4.01053 17.7924 3.47872 16.9351C3.06963 16.3227 3.31509 15.3021 4.17417 13.9957C4.17417 13.9549 4.17417 13.9549 4.17417 13.9141C4.13326 13.9141 4.13326 13.9141 4.09235 13.9141C0.737839 17.3025 -0.653055 20.0786 0.287844 21.5074C0.696931 22.1606 1.59692 22.4872 2.82418 22.4872C3.92872 22.4872 5.36052 22.2423 7.03777 21.7116C10.5559 20.6093 14.8513 18.5272 19.0649 15.792C20.1695 15.098 21.1922 14.3631 22.2149 13.6283C23.3194 12.8118 24.383 11.9953 25.3239 11.138C25.283 9.21922 24.9558 7.74954 24.424 6.60645C23.8921 7.25964 23.2376 7.91283 22.5012 8.56603Z" fill="#827FB7"/>
<path d="M17.3465 3.13685H17.3056C15.8329 3.74922 14.1965 4.64736 12.5193 5.7088C10.1875 7.21932 8.18297 8.89313 6.83298 10.4036C5.483 11.955 4.99209 13.1797 5.44209 13.8737C5.68754 14.2412 6.17844 14.4045 6.87389 14.4045C7.48752 14.4045 8.26479 14.282 9.20569 13.9962C11.1693 13.3838 13.5011 12.2408 15.8329 10.7302C18.492 9.0156 20.6601 7.09684 21.8874 5.54551C22.2556 5.09643 22.5419 4.64736 22.7465 4.23912C20.9874 2.8919 18.7783 2.93273 17.3465 3.13685ZM14.3193 8.48488C11.1284 10.5669 8.06024 11.7509 7.61025 11.0568C7.4057 10.7302 7.81479 10.0362 8.75569 9.09725C9.7375 8.11746 11.1284 7.01519 12.7238 5.99458C15.3011 4.32077 17.8374 3.2185 18.901 3.2185C19.1465 3.2185 19.351 3.25932 19.4329 3.42262C19.8419 4.07582 17.5101 6.40282 14.3193 8.48488Z" fill="#827FB7"/>
<path d="M60.3828 17.0582C60.3828 18.9361 60.1373 20.6916 59.6055 22.2429C59.0737 23.7943 58.2964 25.1415 57.2737 26.2846C56.251 27.4277 54.9828 28.285 53.4692 28.8974C51.9556 29.5097 50.2374 29.8363 48.2738 29.8363H44.9602V4.23926H49.4192C51.342 4.23926 52.9783 4.56586 54.3692 5.25987C55.7601 5.95389 56.8646 6.85204 57.7646 7.99513C58.6646 9.13822 59.3191 10.4854 59.7282 12.0368C60.1782 13.6289 60.3828 15.2619 60.3828 17.0582ZM58.7873 17.0582C58.7873 15.4252 58.5828 13.9147 58.2146 12.5267C57.8464 11.1386 57.2737 9.95471 56.4964 8.93409C55.7192 7.91348 54.6965 7.13781 53.4692 6.56626C52.2419 5.99472 50.7283 5.70895 49.0102 5.70895H46.6375V28.4483H48.4374C50.1556 28.4483 51.6283 28.1625 52.9374 27.591C54.2056 27.0194 55.3101 26.2029 56.1692 25.1823C57.0283 24.1617 57.7237 22.9778 58.1328 21.5897C58.5828 20.1609 58.7873 18.6504 58.7873 17.0582Z" fill="#827FB7"/>
<path d="M66.3149 29.8363V4.23926H67.9104V29.8363H66.3149Z" fill="#827FB7"/>
<path d="M98.3868 30.0395C97.6095 30.0395 97.0368 29.9171 96.6277 29.6313C96.2186 29.3455 95.8914 28.9781 95.6868 28.4474C95.4823 27.9167 95.3595 27.2635 95.2777 26.4878C95.2368 25.7121 95.1959 24.7732 95.155 23.7525C94.3777 25.7529 93.1914 27.3859 91.5959 28.6107C90.0005 29.8354 87.9551 30.4478 85.4596 30.4478C83.5778 30.4478 81.9006 30.0804 80.4688 29.3455C79.037 28.6107 77.8097 27.6309 76.787 26.447C75.8052 25.2222 75.0279 23.8342 74.537 22.242C74.0461 20.6499 73.7598 18.9761 73.7598 17.2206C73.7598 15.3835 74.0052 13.6688 74.537 12.0359C75.0688 10.4029 75.8461 8.97401 76.8688 7.70844C77.8915 6.4837 79.1597 5.46309 80.6324 4.72824C82.146 3.9934 83.8642 3.62598 85.8278 3.62598C87.0551 3.62598 88.2414 3.8301 89.4687 4.19752C90.6959 4.60577 91.8005 5.13649 92.7823 5.87133C93.7641 6.60618 94.6232 7.50432 95.2777 8.52494C95.9323 9.58638 96.3004 10.7295 96.3823 12.0359H94.8277C94.705 10.9336 94.3777 9.9538 93.805 9.09648C93.2323 8.23916 92.5368 7.4635 91.6778 6.89195C90.8187 6.27958 89.9187 5.83051 88.896 5.50391C87.8733 5.17731 86.8505 5.01402 85.8278 5.01402C84.1097 5.01402 82.596 5.34061 81.287 6.03463C79.9779 6.72865 78.8733 7.62679 78.0143 8.76989C77.1552 9.91298 76.4597 11.2194 76.0097 12.6482C75.5597 14.1179 75.3143 15.6284 75.3143 17.1798C75.3143 18.6903 75.5188 20.1191 75.9688 21.548C76.4188 22.9769 77.0325 24.2424 77.8915 25.3447C78.7506 26.447 79.8142 27.3451 81.0415 27.9983C82.2688 28.6515 83.7415 28.9781 85.3778 28.9781C86.7687 28.9781 87.996 28.7331 89.0596 28.2841C90.1232 27.835 91.0641 27.2226 91.8414 26.447C92.6187 25.6713 93.2323 24.7323 93.7232 23.6301C94.2141 22.5278 94.5414 21.3439 94.7459 20.0783H85.7869V18.6495H96.4232V25.9162C96.4232 26.5694 96.505 27.0593 96.6277 27.4676C96.7504 27.8758 96.955 28.1208 97.2004 28.3249C97.4459 28.529 97.6913 28.6515 97.9777 28.6923C98.2641 28.7331 98.5504 28.774 98.8368 28.774L98.3868 30.0395Z" fill="#827FB7"/>
<path d="M103.01 29.8363V4.23926H104.605V29.8363H103.01Z" fill="#827FB7"/>
<path d="M122.973 9.30152V29.8363H116.919V9.30152H115.61C114.669 9.30152 114.014 9.46482 113.687 9.79141C113.36 10.118 113.196 10.6487 113.196 11.4244L109.228 9.34234C109.228 8.72997 109.269 8.1176 109.351 7.50523C109.433 6.89286 109.678 6.32132 110.005 5.87224C110.333 5.38235 110.823 5.01493 111.396 4.68833C112.01 4.40256 112.828 4.23926 113.892 4.23926H130.664V9.30152H122.973Z" fill="#827FB7"/>
<path d="M155.782 17.0573C155.782 18.9352 155.496 20.6907 154.923 22.3237C154.35 23.9567 153.491 25.3855 152.427 26.6103C151.323 27.835 150.014 28.774 148.459 29.468C146.905 30.162 145.146 30.4886 143.223 30.4886C141.259 30.4886 139.541 30.162 137.987 29.468C136.432 28.774 135.123 27.835 134.019 26.6103C132.914 25.3855 132.096 23.9975 131.523 22.3237C130.95 20.6907 130.664 18.9352 130.664 17.0573C130.664 15.1794 130.95 13.4239 131.523 11.7909C132.096 10.1579 132.955 8.72906 134.019 7.50432C135.123 6.27958 136.432 5.34061 137.987 4.64659C139.541 3.95257 141.3 3.62598 143.223 3.62598C145.187 3.62598 146.905 3.95257 148.459 4.64659C150.014 5.34061 151.323 6.27958 152.427 7.50432C153.532 8.72906 154.35 10.1171 154.923 11.7909C155.496 13.4239 155.782 15.1794 155.782 17.0573ZM149.728 17.0573C149.728 16.0367 149.605 15.0161 149.359 14.0363C149.114 13.0157 148.705 12.1175 148.214 11.301C147.682 10.4845 147.028 9.83133 146.168 9.34143C145.35 8.85153 144.328 8.56576 143.182 8.56576C141.996 8.56576 140.973 8.81071 140.155 9.34143C139.337 9.83133 138.641 10.5253 138.109 11.301C137.578 12.1175 137.169 13.0157 136.964 14.0363C136.719 15.0569 136.596 16.0775 136.596 17.0573C136.596 18.0779 136.719 19.0985 136.964 20.0783C137.209 21.0989 137.578 21.9971 138.109 22.8136C138.641 23.6301 139.337 24.2833 140.155 24.7732C140.973 25.2631 141.996 25.5488 143.182 25.5488C144.328 25.5488 145.35 25.3039 146.168 24.7732C146.987 24.2833 147.682 23.5892 148.214 22.8136C148.746 21.9971 149.114 21.0989 149.359 20.0783C149.564 19.0985 149.687 18.0779 149.728 17.0573Z" fill="#827FB7"/>
<path d="M180 12.4858C180 13.9147 179.754 15.1394 179.304 16.2009C178.814 17.2623 178.159 18.1605 177.341 18.8545C176.523 19.5485 175.5 20.0792 174.314 20.4466C173.127 20.7732 171.859 20.9774 170.468 20.9774H167.727V29.8363H161.673V4.23926H171.041C172.636 4.23926 173.986 4.48421 175.132 4.9741C176.277 5.464 177.218 6.11719 177.914 6.89286C178.609 7.66853 179.141 8.56667 179.468 9.54646C179.836 10.5671 180 11.5469 180 12.4858ZM174.273 12.7308C174.273 12.0368 174.15 11.4652 173.945 11.057C173.7 10.6079 173.414 10.2813 173.005 9.99554C172.595 9.75059 172.105 9.54646 171.573 9.46482C171 9.38317 170.427 9.34234 169.773 9.34234H167.768V16.3234H169.405C170.059 16.3234 170.673 16.2825 171.245 16.2009C171.818 16.1192 172.35 15.9151 172.8 15.6702C173.25 15.4252 173.618 15.0578 173.905 14.5679C174.191 14.078 174.273 13.4656 174.273 12.7308Z" fill="#827FB7"/>
</svg>
