<svg width="135" height="26" viewBox="0 0 135 26" fill="none" xmlns="http://www.w3.org/2000/svg">
<path d="M28.5833 2.17749C26.399 1.16025 24.0636 0.420959 21.6219 0C21.322 0.539654 20.9717 1.2655 20.7301 1.84291C18.1346 1.45436 15.5629 1.45436 13.0151 1.84291C12.7736 1.2655 12.4153 0.539654 12.1127 0C9.66841 0.420959 7.33026 1.16297 5.14603 2.18288C0.740431 8.8097 -0.453855 15.2719 0.143289 21.6424C3.06531 23.8144 5.89711 25.1339 8.68111 25.9973C9.3685 25.0556 9.98156 24.0546 10.5097 22.9996C9.50384 22.6192 8.54045 22.1497 7.63017 21.6046C7.87166 21.4265 8.10788 21.2404 8.3361 21.0488C13.8882 23.6337 19.9207 23.6337 25.4065 21.0488C25.6374 21.2404 25.8735 21.4265 26.1124 21.6046C25.1994 22.1523 24.2334 22.6218 23.2276 23.0023C23.7557 24.0546 24.3661 25.0584 25.0561 26C27.8428 25.1366 30.6772 23.8172 33.5993 21.6424C34.2999 14.2574 32.4023 7.85452 28.5833 2.17749ZM11.2661 17.7246C9.5994 17.7246 8.23258 16.1758 8.23258 14.2898C8.23258 12.4037 9.57022 10.8523 11.2661 10.8523C12.962 10.8523 14.3288 12.401 14.2996 14.2898C14.3022 16.1758 12.962 17.7246 11.2661 17.7246ZM22.4765 17.7246C20.8098 17.7246 19.443 16.1758 19.443 14.2898C19.443 12.4037 20.7806 10.8523 22.4765 10.8523C24.1724 10.8523 25.5392 12.401 25.51 14.2898C25.51 16.1758 24.1724 17.7246 22.4765 17.7246Z" fill="white" fill-opacity="0.5"/>
<path d="M45.3427 6.6328H52.5879C54.3345 6.6328 55.81 6.91071 57.0205 7.46386C58.2277 8.01696 59.1329 8.78866 59.7328 9.77621C60.3323 10.7638 60.6348 11.8943 60.6348 13.1679C60.6348 14.4144 60.3216 15.545 59.6954 16.5568C59.0691 17.5713 58.1162 18.3727 56.8345 18.9636C55.5528 19.5545 53.9654 19.8513 52.068 19.8513H45.3427V6.6328ZM51.9935 16.4921C53.1693 16.4921 54.0745 16.1926 54.7059 15.5962C55.3377 14.9972 55.6536 14.1824 55.6536 13.149C55.6536 12.1911 55.3719 11.4275 54.8095 10.8555C54.247 10.2834 53.395 9.99477 52.2562 9.99477H49.9898V16.4921H51.9935Z" fill="white" fill-opacity="0.5"/>
<path d="M71.4818 19.8352C70.4785 19.5708 69.5733 19.1876 68.7694 18.6831V15.5478C69.3772 16.0253 70.1917 16.4193 71.2135 16.7296C72.2352 17.0372 73.2228 17.191 74.1779 17.191C74.6238 17.191 74.961 17.1316 75.189 17.0129C75.4175 16.8942 75.5318 16.7512 75.5318 16.5866C75.5318 16.3977 75.4707 16.2412 75.3458 16.1144C75.221 15.9876 74.9795 15.8823 74.6215 15.7933L72.392 15.2833C71.1154 14.9811 70.2102 14.5629 69.6718 14.026C69.133 13.4917 68.8647 12.7902 68.8647 11.9213C68.8647 11.1901 69.0983 10.5561 69.571 10.0137C70.0405 9.47138 70.7093 9.05313 71.577 8.75902C72.4452 8.46224 73.4587 8.31384 74.6238 8.31384C75.6641 8.31384 76.6169 8.42715 77.4851 8.65381C78.3528 8.88048 79.0693 9.16916 79.6401 9.52262V12.488C79.0559 12.1345 78.3871 11.8566 77.6229 11.6461C76.8611 11.4384 76.0785 11.3358 75.2714 11.3358C74.1062 11.3358 73.5253 11.5382 73.5253 11.9402C73.5253 12.1291 73.6155 12.2694 73.7959 12.3639C73.9763 12.4583 74.3079 12.5554 74.7885 12.658L76.646 12.9979C77.8593 13.2111 78.7641 13.5862 79.3584 14.1204C79.9533 14.6547 80.2502 15.4452 80.2502 16.4921C80.2502 17.6388 79.7594 18.5482 78.7747 19.2227C77.7899 19.8973 76.394 20.2345 74.584 20.2345C73.5197 20.2319 72.485 20.0996 71.4818 19.8352Z" fill="white" fill-opacity="0.5"/>
<path d="M84.6354 19.4384C83.5716 18.9096 82.7672 18.1919 82.2311 17.2853C81.695 16.3787 81.4244 15.3587 81.4244 14.2255C81.4244 13.0922 81.7029 12.0777 82.2602 11.1846C82.8176 10.2915 83.6349 9.58995 84.7127 9.07999C85.7899 8.57003 87.0772 8.31639 88.5767 8.31639C90.4343 8.31639 91.9764 8.71304 93.2026 9.50629V12.9627C92.7702 12.6605 92.2655 12.415 91.6897 12.2261C91.1138 12.0372 90.4981 11.9428 89.8399 11.9428C88.6882 11.9428 87.7886 12.1559 87.1382 12.585C86.4879 13.014 86.1618 13.5725 86.1618 14.2659C86.1618 14.9459 86.4773 15.5017 87.1091 15.9389C87.7409 16.3733 88.6563 16.5918 89.8585 16.5918C90.4769 16.5918 91.0874 16.5001 91.6897 16.3193C92.2896 16.1358 92.8072 15.9119 93.2396 15.6474V18.9905C91.8784 19.8216 90.2992 20.2371 88.5023 20.2371C86.9897 20.2317 85.6997 19.9673 84.6354 19.4384Z" fill="white" fill-opacity="0.5"/>
<path d="M97.8363 19.4386C96.7641 18.9098 95.9468 18.1867 95.3839 17.2666C94.8214 16.3465 94.5374 15.3212 94.5374 14.1879C94.5374 13.0547 94.8187 12.0428 95.3839 11.1551C95.9491 10.2674 96.7613 9.57127 97.8284 9.0667C98.8923 8.56213 100.164 8.3112 101.637 8.3112C103.11 8.3112 104.381 8.56213 105.445 9.0667C106.509 9.57127 107.322 10.262 107.879 11.1443C108.436 12.0267 108.715 13.0385 108.715 14.1852C108.715 15.3185 108.436 16.3438 107.879 17.2639C107.322 18.184 106.507 18.9071 105.434 19.436C104.362 19.9648 103.096 20.2292 101.634 20.2292C100.172 20.2292 98.9057 19.9675 97.8363 19.4386ZM103.481 16.0875C103.933 15.6288 104.161 15.0217 104.161 14.2662C104.161 13.5107 103.935 12.909 103.481 12.4637C103.03 12.0158 102.414 11.7919 101.634 11.7919C100.841 11.7919 100.219 12.0158 99.7656 12.4637C99.3146 12.9117 99.0889 13.5107 99.0889 14.2662C99.0889 15.0217 99.3146 15.6288 99.7656 16.0875C100.217 16.5462 100.841 16.7782 101.634 16.7782C102.414 16.7755 103.03 16.5462 103.481 16.0875Z" fill="white" fill-opacity="0.5"/>
<path d="M119.877 9.01271V13.0924C119.405 12.7767 118.795 12.6202 118.038 12.6202C117.048 12.6202 116.284 12.9251 115.753 13.5349C115.22 14.1447 114.954 15.0945 114.954 16.3788V19.8541H110.403V8.80497H114.862V12.318C115.108 11.0337 115.509 10.0866 116.061 9.47409C116.61 8.86432 117.321 8.55943 118.187 8.55943C118.842 8.55943 119.405 8.71054 119.877 9.01271Z" fill="white" fill-opacity="0.5"/>
<path d="M135 6.25502V19.854H130.448V17.3798C130.063 18.3107 129.48 19.0203 128.694 19.506C127.908 19.989 126.937 20.2318 125.785 20.2318C124.756 20.2318 123.859 19.9782 123.091 19.4682C122.324 18.9582 121.733 18.2594 121.316 17.3717C120.902 16.484 120.692 15.4803 120.692 14.3578C120.679 13.2003 120.899 12.1614 121.353 11.2413C121.805 10.3212 122.444 9.60354 123.267 9.08815C124.09 8.5728 125.029 8.31377 126.083 8.31377C128.251 8.31377 129.705 9.27162 130.448 11.1847V6.25502H135ZM129.769 16.0118C130.233 15.5531 130.464 14.9568 130.464 14.2283C130.464 13.524 130.239 12.9493 129.788 12.5095C129.336 12.0697 128.718 11.8484 127.94 11.8484C127.173 11.8484 126.56 12.0724 126.101 12.5203C125.642 12.9682 125.414 13.5483 125.414 14.266C125.414 14.9838 125.642 15.5693 126.101 16.0226C126.56 16.4759 127.165 16.7025 127.922 16.7025C128.689 16.6998 129.304 16.4705 129.769 16.0118Z" fill="white" fill-opacity="0.5"/>
<path d="M64.4703 9.98111C65.7234 9.98111 66.7396 9.05332 66.7396 7.90887C66.7396 6.76441 65.7234 5.83667 64.4703 5.83667C63.2169 5.83667 62.2011 6.76441 62.2011 7.90887C62.2011 9.05332 63.2169 9.98111 64.4703 9.98111Z" fill="white" fill-opacity="0.5"/>
<path d="M62.1991 11.4086C63.5895 12.0184 65.3148 12.0454 66.7371 11.4086V19.9134H62.1991V11.4086Z" fill="white" fill-opacity="0.5"/>
</svg>
