<svg width="128" height="37" viewBox="0 0 128 37" fill="none" xmlns="http://www.w3.org/2000/svg">
<path d="M6.58776 0.129732C3.96792 1.24718 1.08785 4.4041 0.178235 8.36672C-0.973728 13.3875 3.82013 15.5107 4.21332 14.8145C4.67611 13.9965 3.35432 13.7199 3.08224 11.1149C2.7306 7.75028 4.26565 3.99071 6.19757 2.34112C6.55668 2.03465 6.5396 2.46121 6.5396 3.25023C6.5396 4.66117 6.46309 17.3273 6.46309 19.9708C6.46309 23.5477 6.3181 24.6772 6.05771 25.7933C5.79387 26.9243 5.36971 27.6886 5.69112 27.983C6.05021 28.3123 7.58341 27.529 8.471 26.2667C9.53535 24.7527 9.90792 22.9345 9.97481 20.96C10.0556 18.5798 10.0522 14.8029 10.0556 12.6486C10.0588 10.6728 10.0883 4.88715 10.0216 1.40903C10.0053 0.555917 7.68338 -0.339123 6.58763 0.128694L6.58776 0.129732ZM99.6179 16.8694C99.5334 18.7289 99.1295 20.1824 98.6281 21.2076C97.6576 23.1924 95.6436 23.8087 94.7885 20.9555C94.3225 19.4002 94.3007 16.8028 94.6357 14.6324C94.9768 12.4215 95.929 10.7517 97.5059 10.9023C99.0612 11.0511 99.7892 13.0933 99.6179 16.8694ZM73.3981 28.4064C73.377 31.4962 72.8998 34.2052 71.8764 34.9921C70.425 36.1077 68.4741 35.2709 68.8781 33.0162C69.2355 31.0211 70.9259 28.9836 73.4022 26.494C73.4022 26.494 73.4073 27.0618 73.3981 28.4064ZM73.0017 16.8514C72.913 18.545 72.4821 20.2465 72.012 21.2078C71.0416 23.1926 69.013 23.8131 68.1723 20.9557C67.5975 19.0035 67.7352 16.4767 68.0195 14.8847C68.3886 12.819 69.2831 10.9027 70.8897 10.9027C72.4517 10.9027 73.2219 12.6488 73.0017 16.8514ZM57.8126 16.8255C57.7174 18.6192 57.3739 20.1187 56.8228 21.2078C55.8257 23.1789 53.8531 23.8041 52.9832 20.9557C52.356 18.9019 52.5695 16.1013 52.8304 14.5885C53.2176 12.3435 54.1871 10.7519 55.7006 10.9027C57.2552 11.0575 58.011 13.0933 57.8126 16.8255ZM127.421 18.9207C127.041 18.9207 126.867 19.3198 126.724 19.9918C126.226 22.3281 125.703 22.8556 125.029 22.8556C124.275 22.8556 123.598 21.6988 123.424 19.383C123.287 17.562 123.309 14.2096 123.484 10.8749C123.52 10.1897 123.334 9.51177 121.531 8.84415C120.755 8.55699 119.627 8.13417 119.065 9.51572C117.478 13.4188 116.857 16.5176 116.711 17.7764C116.703 17.8416 116.625 17.8549 116.611 17.7027C116.518 16.6944 116.31 14.8623 116.284 11.013C116.279 10.2619 116.123 9.62263 115.309 9.09925C114.782 8.75964 113.179 8.15899 112.602 8.87356C112.101 9.45798 111.522 11.0307 110.921 12.895C110.432 14.4103 110.091 15.4353 110.091 15.4353C110.091 15.4353 110.097 11.3469 110.103 9.79606C110.106 9.211 109.712 9.01605 109.593 8.98071C109.059 8.82263 108.006 8.55854 107.559 8.55854C107.007 8.55854 106.872 8.87269 106.872 9.33043C106.872 9.39036 106.785 14.7132 106.785 18.4352C106.785 18.5969 106.785 18.7733 106.787 18.9607C106.481 20.6714 105.492 22.9936 104.416 22.9936C103.339 22.9936 102.831 22.0227 102.831 17.5855C102.831 14.997 102.907 13.8714 102.944 11.9992C102.966 10.9208 103.008 10.0927 103.006 9.90482C102.998 9.32854 102.02 9.03809 101.565 8.93075C101.108 8.8225 100.711 8.78057 100.4 8.79857C99.9612 8.82381 99.6506 9.11735 99.6506 9.52107C99.6506 9.73753 99.653 10.1492 99.653 10.1492C99.0874 9.24358 98.1778 8.61328 97.5726 8.43063C95.9426 7.93734 94.2416 8.37443 92.9586 10.2038C91.9389 11.6574 91.3243 13.3037 91.0823 15.669C90.9055 17.3982 90.9632 19.1517 91.2775 20.6346C90.8977 22.308 90.1925 22.9936 89.4204 22.9936C88.2994 22.9936 87.4867 21.1291 87.5811 17.9047C87.6434 15.7839 88.0598 14.2955 88.5151 12.1423C88.7092 11.2244 88.5515 10.7439 88.1559 10.2833C87.7931 9.86091 87.0201 9.64511 85.9088 9.91053C85.1173 10.0998 83.9855 10.3033 82.9501 10.4596C82.9501 10.4596 83.0126 10.2056 83.0639 9.75774C83.3332 7.40913 80.8286 7.59969 80.0295 8.34984C79.5525 8.7977 79.2279 9.3259 79.1046 10.2756C78.9092 11.7827 80.1155 12.4936 80.1155 12.4936C79.7197 14.3397 78.7496 16.7513 77.7479 18.4948C77.2115 19.429 76.8011 20.1212 76.2713 20.857C76.2693 20.583 76.2679 20.3091 76.2669 20.0363C76.2548 16.1552 76.3055 13.1005 76.3279 11.9996C76.3497 10.9212 76.3921 10.1151 76.3897 9.92715C76.3837 9.50564 76.1422 9.34647 75.6398 9.14493C75.1955 8.96668 74.6702 8.8433 74.1254 8.80027C73.4377 8.74561 73.0234 9.11728 73.0341 9.55679C73.0363 9.63977 73.0362 10.1493 73.0362 10.1493C72.4707 9.24373 71.5611 8.61345 70.9559 8.43078C69.3258 7.9377 67.6249 8.37481 66.3419 10.204C65.3224 11.6575 64.6548 13.6972 64.4656 15.6511C64.2894 17.4721 64.3219 19.0197 64.5621 20.3233C64.3029 21.6287 63.5577 22.9937 62.7151 22.9937C61.6379 22.9937 61.0249 22.0229 61.0249 17.5857C61.0249 14.9971 61.1012 13.8716 61.1387 11.9996C61.1604 10.9212 61.2025 10.0929 61.2001 9.90519C61.1922 9.32892 60.2142 9.03846 59.7592 8.93089C59.283 8.81871 58.872 8.77744 58.5563 8.80114C58.1399 8.83276 57.8471 9.21278 57.8471 9.4962V10.1493C57.2816 9.24373 56.3719 8.61345 55.7667 8.43078C54.1367 7.9377 52.4452 8.38184 51.1528 10.204C50.3099 11.3921 49.6276 12.7093 49.2764 15.6252C49.175 16.4678 49.1302 17.2569 49.136 17.9944C48.7999 20.0889 47.3155 22.5028 46.1012 22.5028C45.3907 22.5028 44.7139 21.0985 44.7139 18.1055C44.7139 14.1187 44.9561 8.44242 44.997 7.89535C44.997 7.89535 46.5312 7.86878 46.8283 7.86526C47.5936 7.85669 48.2867 7.87514 49.306 7.82201C49.8172 7.79545 50.3097 5.92588 49.7821 5.69449C49.5429 5.58977 47.8528 5.49801 47.1828 5.48352C46.6194 5.47051 45.0509 5.35223 45.0509 5.35223C45.0509 5.35223 45.1916 1.58455 45.2243 1.18654C45.2521 0.854818 44.8309 0.684024 44.5894 0.580389C44.0021 0.32727 43.4767 0.206079 42.8538 0.0752377C41.9933 -0.105651 41.6029 0.0712857 41.5266 0.811342C41.4118 1.9345 41.3523 5.22424 41.3523 5.22424C40.7209 5.22424 38.5638 5.09846 37.9322 5.09846C37.3453 5.09846 36.7119 7.67032 37.5232 7.70192C38.4568 7.73881 40.0836 7.77065 41.1621 7.8038C41.1621 7.8038 41.1141 13.5736 41.1141 15.355C41.1141 15.5445 41.1157 15.727 41.116 15.9041C40.5224 19.0566 38.4318 20.7595 38.4318 20.7595C38.8808 18.6739 37.9636 17.1078 36.3116 15.782C35.7029 15.2935 34.5014 14.3686 33.157 13.355C33.157 13.355 33.9356 12.573 34.6261 10.9998C35.1154 9.88548 35.1365 8.61019 33.9356 8.32897C31.9514 7.86399 30.3153 9.34893 29.8273 10.9342C29.4492 12.1623 29.6509 13.0736 30.3916 14.0202C30.4456 14.0894 30.5042 14.1601 30.5648 14.2312C30.1169 15.1109 29.5015 16.2953 28.9804 17.2138C27.5339 19.7639 26.4411 21.781 25.6153 21.781C24.9552 21.781 24.964 19.7332 24.964 17.8158C24.964 16.1628 25.0838 13.6777 25.1795 11.1048C25.2111 10.2539 24.7936 9.76912 24.0936 9.33005C23.6683 9.06331 22.7607 8.53885 22.235 8.53885C21.4481 8.53885 19.178 8.64795 17.033 14.9704C16.7627 15.7673 16.2317 17.2193 16.2317 17.2193L16.2774 9.61632C16.2774 9.43807 16.1842 9.26573 15.9709 9.14783C15.6094 8.94784 14.644 8.53885 13.7856 8.53885C13.3766 8.53885 13.1725 8.7327 13.1725 9.11908L13.0976 21.014C13.0976 21.9178 13.1208 22.9721 13.2084 23.4333C13.2958 23.895 13.4374 24.2706 13.6127 24.4941C13.7877 24.7171 13.9902 24.8873 14.324 24.9575C14.6348 25.0227 16.3362 25.2453 16.4246 24.5828C16.5306 23.7887 16.5347 22.9299 17.4281 19.7268C18.819 14.7401 20.6324 12.307 21.4849 11.4429C21.634 11.2918 21.8042 11.2828 21.796 11.53C21.7596 12.6233 21.6316 15.3552 21.5454 17.6762C21.3145 23.8873 22.4234 25.0385 24.008 25.0385C25.2203 25.0385 26.9292 23.8111 28.7612 20.704C29.9032 18.7677 31.0121 16.8691 31.8089 15.5008C32.3641 16.0245 32.9871 16.5882 33.6098 17.1903C35.0567 18.5897 35.5318 19.9194 35.2166 21.1808C34.9755 22.1452 34.0676 23.139 32.4517 22.173C31.9808 21.8912 31.7798 21.6735 31.3062 21.3558C31.0518 21.1851 30.6633 21.1341 30.4304 21.3129C29.8255 21.7777 29.4795 22.3689 29.2819 23.1008C29.0897 23.8131 29.7897 24.1895 30.5153 24.5188C31.1401 24.8023 32.483 25.0591 33.3394 25.0883C36.6762 25.202 39.3493 23.4466 41.21 18.9185C41.5431 22.8291 42.9608 25.042 45.4237 25.042C47.0704 25.042 48.7213 22.8732 49.4433 20.7395C49.6506 21.6093 49.9574 22.3656 50.3536 23.0051C52.2514 26.0692 55.9332 25.4097 57.7826 22.8078C58.3544 22.0039 58.4414 21.715 58.4414 21.715C58.7111 24.1718 60.6527 25.0302 61.7644 25.0302C63.0095 25.0302 64.2951 24.4304 65.1961 22.3635C65.3016 22.5878 65.4169 22.802 65.5427 23.0051C67.4406 26.0692 71.1223 25.4097 72.9717 22.8078C73.059 22.6857 73.1346 22.575 73.2007 22.4756L73.255 24.0894C73.255 24.0894 72.2 25.0756 71.5524 25.6806C68.702 28.3453 66.5346 30.367 66.3752 32.7213C66.1705 35.7233 68.5598 36.839 70.3674 36.9852C72.287 37.1404 73.9309 36.0599 74.9413 34.5477C75.83 33.2166 76.4118 30.3519 76.3691 27.5225C76.3521 26.3895 76.3241 24.9489 76.3021 23.4047C77.3039 22.2192 78.4326 20.7208 79.4719 18.967C80.6045 17.0556 81.8183 14.4889 82.4399 12.4913C82.4399 12.4913 83.4945 12.5005 84.62 12.4254C84.98 12.4015 85.0834 12.4764 85.0169 12.7453C84.9365 13.0702 83.5949 18.343 84.8193 21.8556C85.6574 24.2602 87.5466 25.0338 88.6667 25.0338C89.9779 25.0338 91.2323 24.0248 91.9044 22.5265C91.9855 22.6936 92.0701 22.8552 92.1625 23.0044C94.0604 26.0685 97.7292 25.4051 99.5916 22.8071C100.012 22.221 100.25 21.7142 100.25 21.7142C100.65 24.2569 102.591 25.0424 103.702 25.0424C104.86 25.0424 105.959 24.5587 106.85 22.4093C106.887 23.3557 106.946 24.1296 107.039 24.3735C107.095 24.5227 107.424 24.7101 107.663 24.8005C108.723 25.2007 109.803 25.0115 110.202 24.9291C110.479 24.8721 110.695 24.6457 110.725 24.0613C110.802 22.5268 110.755 19.9485 111.211 18.0324C111.978 14.8166 112.692 13.5692 113.031 12.9517C113.221 12.6057 113.435 12.5486 113.443 12.9148C113.459 13.6557 113.495 15.8316 113.792 18.7549C114.01 20.9049 114.302 22.1757 114.525 22.5779C115.164 23.728 115.953 23.7825 116.596 23.7825C117.004 23.7825 117.859 23.6674 117.783 22.9355C117.745 22.5787 117.811 20.3739 118.566 17.2058C119.059 15.1369 119.882 13.2676 120.179 12.5842C120.288 12.3321 120.339 12.5308 120.337 12.5695C120.275 13.9943 120.135 18.6546 120.704 21.2034C121.476 24.6563 123.71 25.0427 124.488 25.0427C126.15 25.0427 127.509 23.7546 127.967 20.3654C128.077 19.5498 127.914 18.9201 127.425 18.9201" fill="white" fill-opacity="0.5"/>
</svg>
