<svg width="118" height="30" viewBox="0 0 118 30" fill="none" xmlns="http://www.w3.org/2000/svg">
<path fill-rule="evenodd" clip-rule="evenodd" d="M41.2939 19.4056C41.2939 19.9142 40.9236 20.3322 40.3968 20.3322C39.8843 20.3322 39.514 19.9132 39.514 19.4056V10.5704C39.514 10.0618 39.8842 9.64373 40.4111 9.64373C40.9236 9.64373 41.2939 10.0628 41.2939 10.5704V19.4056Z" fill="white" fill-opacity="0.5"/>
<path fill-rule="evenodd" clip-rule="evenodd" d="M52.7986 10.5704V18.6437C52.7986 19.7351 52.2435 20.3484 51.3607 20.3484H51.29C50.4501 20.3484 50.0508 19.8399 49.6952 19.0922L47.901 15.4294L46.3062 11.6475L46.3491 15.3103L46.3634 19.3913C46.3634 19.8999 45.9935 20.3179 45.4663 20.3179C44.9538 20.3179 44.5839 19.8989 44.5839 19.3913V11.318C44.5839 10.3161 45.1389 9.61321 46.1076 9.61321H46.1787C47.0758 9.61321 47.4457 10.1218 47.8021 10.8694L49.5673 14.5027L51.0767 18.0313L51.0342 14.6522L51.0198 10.5713C51.0198 10.0627 51.3897 9.64465 51.917 9.64465C52.4283 9.64369 52.7986 10.0618 52.7986 10.5704Z" fill="white" fill-opacity="0.5"/>
<path fill-rule="evenodd" clip-rule="evenodd" d="M59.9329 19.3913C59.9329 19.8999 59.563 20.318 59.0358 20.318C58.5236 20.318 58.1534 19.8989 58.1534 19.3913V11.3932H55.9463C55.491 11.3932 55.1211 11.0342 55.1211 10.5113C55.1211 10.0028 55.491 9.64469 55.9463 9.64469H62.1399C62.5952 9.64469 62.9655 10.0037 62.9655 10.5266C62.9655 11.0352 62.5952 11.3932 62.1399 11.3932H59.9329V19.3913Z" fill="white" fill-opacity="0.5"/>
<path fill-rule="evenodd" clip-rule="evenodd" d="M65.2866 19.0923V10.7952C65.2866 10.0181 65.6993 9.58476 66.4542 9.61428H71.5803C72.0356 9.61428 72.4055 9.9876 72.4055 10.4962C72.4055 11.0048 72.0356 11.3628 71.5803 11.3628H67.0518V13.9343H71.0531C71.4949 13.9343 71.8504 14.2781 71.8504 14.7714C71.8504 15.2647 71.4949 15.6085 71.0531 15.6085H67.0518V18.5685H71.5803C72.0356 18.5685 72.4055 18.9419 72.4055 19.4504C72.4055 19.959 72.0356 20.3171 71.5803 20.3171H66.4113C65.6712 20.318 65.2587 19.8847 65.2866 19.0923Z" fill="white" fill-opacity="0.5"/>
<path fill-rule="evenodd" clip-rule="evenodd" d="M82.1032 20.3628C82.6014 20.0933 82.7584 19.54 82.516 19.1066L80.7361 15.7885C82.2029 15.4895 83.0575 14.3533 83.0575 12.8133C83.0575 11.199 82.0897 9.61428 79.7682 9.61428H76.3939C75.6394 9.58476 75.2266 10.0181 75.2266 10.7952V19.4066C75.2266 19.9142 75.5965 20.3333 76.109 20.3333C76.6362 20.3333 77.0061 19.9152 77.0061 19.4066L76.9918 16.1476H78.8711L80.8505 19.9895C81.0916 20.4228 81.6189 20.6171 82.1032 20.3628ZM79.8099 14.4571H76.9906V11.3619H79.7956C80.7353 11.3619 81.2625 11.9895 81.2625 12.9019C81.2625 13.8143 80.7643 14.4571 79.8099 14.4571Z" fill="white" fill-opacity="0.5"/>
<path fill-rule="evenodd" clip-rule="evenodd" d="M86.7302 19.5256C85.6627 18.5237 85.1784 16.9542 85.1784 14.9809C85.1784 12.9923 85.6484 11.438 86.7024 10.4513C87.3572 9.85326 88.2396 9.44946 89.5217 9.44946C90.6465 9.44946 91.5154 9.71898 92.1702 10.3018C92.7399 10.7799 93.1527 11.4533 93.3947 12.3952C93.5226 12.8885 93.1952 13.3818 92.6545 13.4866C92.142 13.5761 91.7295 13.2323 91.5726 12.739C91.4018 12.2609 91.1733 11.9171 90.9032 11.6771C90.5329 11.3333 90.0776 11.1837 89.4788 11.1837C88.8383 11.1837 88.2825 11.378 87.8697 11.8113C87.2718 12.439 87.0151 13.5609 87.0151 14.9809C87.0151 16.3866 87.2575 17.5075 87.884 18.1351C88.2968 18.5685 88.8383 18.7627 89.4645 18.7627C90.1193 18.7627 90.6175 18.5837 91.0311 18.1799C91.244 17.9704 91.43 17.7018 91.5579 17.3875C91.7431 16.9237 92.1277 16.5799 92.6255 16.6999C93.1237 16.8199 93.4376 17.3275 93.2806 17.8209C93.024 18.6427 92.583 19.3009 91.985 19.7494C91.3303 20.2427 90.5186 20.497 89.4935 20.497C88.1836 20.497 87.3572 20.0932 86.7302 19.5256Z" fill="white" fill-opacity="0.5"/>
<path fill-rule="evenodd" clip-rule="evenodd" d="M99.8022 9.44946C96.712 9.44946 95.4021 11.6323 95.4021 14.9809C95.4021 18.4342 96.6985 20.5123 99.8022 20.5123C102.849 20.5123 104.188 18.4342 104.188 14.9809C104.188 11.5723 102.864 9.44946 99.8022 9.44946ZM99.7879 11.199C101.482 11.199 102.365 12.439 102.365 14.9809C102.365 17.5218 101.468 18.7627 99.7879 18.7627C98.0934 18.7627 97.2388 17.5228 97.2388 14.9809C97.2388 12.4399 98.1216 11.199 99.7879 11.199Z" fill="white" fill-opacity="0.5"/>
<path fill-rule="evenodd" clip-rule="evenodd" d="M118 19.3913C118 19.8999 117.63 20.3179 117.103 20.3179C116.59 20.3179 116.22 19.8989 116.22 19.3913V15.3846L116.263 11.4827L115.024 15.4446L113.771 19.3465C113.558 20.0341 113.116 20.3037 112.561 20.3037C111.977 20.3037 111.55 20.0199 111.322 19.3322L110.04 15.4456L108.858 11.5437L108.901 15.3856V19.3922C108.901 19.9008 108.531 20.3189 108.004 20.3189C107.491 20.3189 107.121 19.8999 107.121 19.3922V11.3942C107.121 10.2875 107.691 9.64466 108.688 9.64466C109.628 9.64466 110.154 10.1675 110.453 11.1247L111.763 15.2056L112.56 17.9865L113.372 15.2056L114.682 11.1247C114.981 10.1675 115.494 9.64466 116.433 9.64466C117.43 9.64466 117.985 10.2723 117.985 11.3942L118 19.3913Z" fill="white" fill-opacity="0.5"/>
<path d="M25.1425 16.5083C25.1425 16.7757 25.0407 17.0322 24.8597 17.2213C24.6785 17.4104 24.4329 17.5167 24.1767 17.5167C23.9206 17.5167 23.6749 17.4104 23.4938 17.2213C23.3127 17.0322 23.2109 16.7757 23.2109 16.5083V7.50005C23.2109 7.23262 23.3127 6.97614 23.4938 6.78706C23.6749 6.59794 23.9206 6.4917 24.1767 6.4917C24.4329 6.4917 24.6785 6.59794 24.8597 6.78706C25.0407 6.97614 25.1425 7.23262 25.1425 7.50005V16.5083ZM24.8073 22.75C24.6796 22.8833 21.0878 26.0083 14.5028 26.0083C7.91788 26.0083 4.35007 22.9 4.19841 22.7666C4.10282 22.6825 4.02412 22.5795 3.96675 22.4636C3.90937 22.3476 3.87453 22.2209 3.86412 22.0909C3.85375 21.9608 3.86805 21.8299 3.90624 21.7056C3.94442 21.5813 4.00572 21.4661 4.08665 21.3666C4.25336 21.1653 4.48952 21.0409 4.74372 21.0206C4.99791 21.0003 5.24949 21.0858 5.44353 21.2583C5.49943 21.3 8.70808 24.0166 14.4948 24.0166C20.2816 24.0166 23.5142 21.2833 23.5462 21.2583C23.7424 21.0873 23.9948 21.003 24.2497 21.0232C24.5045 21.0434 24.7418 21.1666 24.911 21.3666C25.0739 21.565 25.1552 21.8224 25.1372 22.083C25.1193 22.3436 25.0036 22.5863 24.8153 22.7583L24.8073 22.75ZM3.85518 7.50005C3.8696 7.23178 3.98518 6.98038 4.17664 6.80078C4.36807 6.62122 4.61984 6.52806 4.87685 6.5417C5.11512 6.55582 5.33996 6.66158 5.50798 6.83854C5.676 7.0155 5.77532 7.25114 5.78677 7.50005V16.4917C5.78677 16.7591 5.68502 17.0156 5.50388 17.2047C5.32279 17.3938 5.07714 17.5 4.82099 17.5C4.56485 17.5 4.3192 17.3938 4.13806 17.2047C3.95693 17.0156 3.85518 16.7591 3.85518 16.4917V7.50005ZM8.70009 5.50006C8.71456 5.23178 8.83009 4.98038 9.02155 4.80079C9.21298 4.62123 9.46475 4.52807 9.72177 4.54171C9.96003 4.55583 10.1849 4.66159 10.3529 4.83854C10.5209 5.0155 10.6202 5.25114 10.6317 5.50006V18.8333C10.6317 19.1007 10.5299 19.3572 10.3488 19.5463C10.1677 19.7354 9.92205 19.8416 9.66591 19.8416C9.40976 19.8416 9.16411 19.7354 8.98298 19.5463C8.80184 19.3572 8.70009 19.1007 8.70009 18.8333V5.50006ZM13.569 5.00006C13.569 4.73263 13.6707 4.47615 13.8518 4.28707C14.033 4.09795 14.2786 3.99171 14.5348 3.99171C14.7909 3.99171 15.0366 4.09795 15.2177 4.28707C15.3988 4.47615 15.5005 4.73263 15.5005 5.00006V19.5C15.5005 19.7674 15.3988 20.0239 15.2177 20.213C15.0366 20.4021 14.7909 20.5083 14.5348 20.5083C14.2786 20.5083 14.033 20.4021 13.8518 20.213C13.6707 20.0239 13.569 19.7674 13.569 19.5V5.00006ZM18.358 5.50006C18.358 5.23262 18.4598 4.97614 18.6409 4.78707C18.822 4.59795 19.0677 4.49171 19.3238 4.49171C19.58 4.49171 19.8256 4.59795 20.0067 4.78707C20.1878 4.97614 20.2896 5.23262 20.2896 5.50006V18.8333C20.2896 19.1007 20.1878 19.3572 20.0067 19.5463C19.8256 19.7354 19.58 19.8416 19.3238 19.8416C19.0677 19.8416 18.822 19.7354 18.6409 19.5463C18.4598 19.3572 18.358 19.1007 18.358 18.8333V5.50006ZM25.4059 8.45879e-05H3.6317C3.15723 -0.0032354 2.68682 0.0912048 2.2474 0.278004C1.80794 0.464763 1.40813 0.740202 1.07078 1.08852C0.733428 1.43688 0.465206 1.85124 0.281491 2.30796C0.0977373 2.76463 0.00210572 3.25471 0 3.75007V26.2499C0.00210572 26.7453 0.0977373 27.2354 0.281491 27.6921C0.465206 28.1488 0.733428 28.5631 1.07078 28.9115C1.40813 29.2598 1.80794 29.5352 2.2474 29.722C2.68682 29.9088 3.15723 30.0031 3.6317 29.9999H25.4059C25.8797 30.0031 26.3494 29.9091 26.7884 29.7228C27.2273 29.5366 27.6268 29.2618 27.964 28.9144C28.3012 28.567 28.5696 28.1536 28.7539 27.6979C28.938 27.2421 29.0345 26.7529 29.0376 26.2583V3.75007C29.0355 3.25539 28.9401 2.76603 28.7569 2.30988C28.5736 1.85372 28.3061 1.43972 27.9696 1.09148C27.6331 0.743282 27.2342 0.467683 26.7957 0.280403C26.3572 0.0931242 25.8877 -0.0021154 25.4139 8.45879e-05" fill="white" fill-opacity="0.5"/>
</svg>
