<svg width="68" height="46" viewBox="0 0 68 46" fill="none" xmlns="http://www.w3.org/2000/svg">
<path d="M0.880039 37H4.08004C4.96671 37 5.64671 37.2367 6.12004 37.71C6.52004 38.11 6.72004 38.6433 6.72004 39.31V39.33C6.72004 39.8967 6.58004 40.36 6.30004 40.72C6.02671 41.0733 5.66671 41.3333 5.22004 41.5L6.93004 44H5.13004L3.63004 41.76H2.42004V44H0.880039V37ZM3.98004 40.4C4.36004 40.4 4.65004 40.31 4.85004 40.13C5.05671 39.95 5.16004 39.71 5.16004 39.41V39.39C5.16004 39.0567 5.05337 38.8067 4.84004 38.64C4.62671 38.4733 4.33004 38.39 3.95004 38.39H2.42004V40.4H3.98004ZM8.1066 37H13.3866V38.37H9.6366V39.79H12.9366V41.16H9.6366V42.63H13.4366V44H8.1066V37ZM14.8058 37H16.4658L18.3058 39.96L20.1458 37H21.8058V44H20.2758V39.43L18.3058 42.42H18.2658L16.3158 39.46V44H14.8058V37ZM23.5575 37H25.0975V44H23.5575V37ZM28.4768 38.42H26.3468V37H32.1468V38.42H30.0168V44H28.4768V38.42ZM34.9612 38.42H32.8312V37H38.6312V38.42H36.5012V44H34.9612V38.42ZM41.3171 36.95H42.7371L45.7371 44H44.1271L43.4871 42.43H40.5271L39.8871 44H38.3171L41.3171 36.95ZM42.9371 41.07L42.0071 38.8L41.0771 41.07H42.9371ZM46.8175 37H48.2375L51.5175 41.31V37H53.0375V44H51.7275L48.3375 39.55V44H46.8175V37ZM57.9979 44.12C57.4846 44.12 57.0079 44.0267 56.5679 43.84C56.1279 43.6533 55.7479 43.4 55.4279 43.08C55.1079 42.7533 54.8579 42.37 54.6779 41.93C54.4979 41.49 54.4079 41.02 54.4079 40.52V40.5C54.4079 40 54.4979 39.5333 54.6779 39.1C54.8579 38.66 55.1079 38.2767 55.4279 37.95C55.7479 37.6167 56.1313 37.3567 56.5779 37.17C57.0246 36.9767 57.5179 36.88 58.0579 36.88C58.3846 36.88 58.6813 36.9067 58.9479 36.96C59.2213 37.0133 59.4679 37.0867 59.6879 37.18C59.9079 37.2733 60.1113 37.3867 60.2979 37.52C60.4846 37.6533 60.6579 37.8 60.8179 37.96L59.8379 39.09C59.5646 38.8433 59.2846 38.65 58.9979 38.51C58.7179 38.37 58.4013 38.3 58.0479 38.3C57.7546 38.3 57.4813 38.3567 57.2279 38.47C56.9813 38.5833 56.7679 38.74 56.5879 38.94C56.4079 39.14 56.2679 39.3733 56.1679 39.64C56.0679 39.9 56.0179 40.18 56.0179 40.48V40.5C56.0179 40.8 56.0679 41.0833 56.1679 41.35C56.2679 41.6167 56.4046 41.85 56.5779 42.05C56.7579 42.25 56.9713 42.41 57.2179 42.53C57.4713 42.6433 57.7479 42.7 58.0479 42.7C58.4479 42.7 58.7846 42.6267 59.0579 42.48C59.3379 42.3333 59.6146 42.1333 59.8879 41.88L60.8679 42.87C60.6879 43.0633 60.5013 43.2367 60.3079 43.39C60.1146 43.5433 59.9013 43.6767 59.6679 43.79C59.4413 43.8967 59.1913 43.9767 58.9179 44.03C58.6446 44.09 58.3379 44.12 57.9979 44.12ZM62.1007 37H67.3807V38.37H63.6307V39.79H66.9307V41.16H63.6307V42.63H67.4307V44H62.1007V37Z" fill="#060070"/>
<path d="M34.0669 0.0375391C34.1468 0.0127148 34.2311 0 34.3167 0C34.4555 0 34.5905 0.0339063 34.7097 0.096875C34.7756 0.131992 34.8365 0.175586 34.8903 0.227051L37.2211 2.45336C37.3086 2.53691 37.3739 2.63742 37.4138 2.74641C37.4557 2.85963 37.4703 2.98133 37.4538 3.10242C37.4265 3.30283 37.3219 3.4766 37.1717 3.59709C37.1679 3.60012 37.1647 3.60254 37.1609 3.60557L34.8897 5.77678C34.5734 6.07951 34.0593 6.07951 33.7424 5.77678C33.5902 5.63146 33.5047 5.43408 33.5047 5.22883C33.5047 5.02297 33.5902 4.82559 33.7424 4.68027L34.7908 3.67943C28.0425 3.786 22.6227 9.02814 22.6227 15.5C22.6234 17.5755 23.1951 19.6136 24.2816 21.4106C24.3894 21.5886 24.4185 21.7999 24.3628 21.9991C24.307 22.1971 24.1707 22.3666 23.9843 22.4696C23.855 22.5404 23.7137 22.5743 23.5748 22.5731C23.4531 22.5725 23.3333 22.5458 23.2243 22.4956C23.0836 22.4302 22.9606 22.3254 22.8763 22.1862C21.6472 20.1536 21 17.8474 21 15.5C21 8.25436 27.0574 2.34014 34.5911 2.13307L33.743 1.32295C33.4267 1.02021 33.4267 0.529785 33.743 0.227051C33.8349 0.139258 33.9458 0.0750781 34.0669 0.0375391Z" fill="#060070"/>
<path d="M36.354 16.6655L36.3071 16.6092C36.1904 16.4827 35.9724 16.364 35.6529 16.2526V17.8147C36.2057 17.733 36.482 17.495 36.482 17.1003V17.0785C36.482 16.9907 36.4693 16.9095 36.4434 16.8351C36.4313 16.7999 36.4161 16.766 36.3977 16.7333C36.3844 16.7097 36.3698 16.6873 36.354 16.6655Z" fill="#060070"/>
<path d="M33.7481 13.5183C33.7481 13.6969 33.8026 13.8495 33.9116 13.9754C34.0206 14.0947 34.2349 14.2097 34.5544 14.3218V12.8038C34.266 12.8408 34.0599 12.9231 33.9351 13.0497C33.8108 13.1683 33.7481 13.3173 33.7481 13.4959V13.5183Z" fill="#060070"/>
<path fill-rule="evenodd" clip-rule="evenodd" d="M44.0887 15.5006C44.0887 20.2947 40.0204 24.1806 35.0013 24.1806C29.9822 24.1806 25.9139 20.2947 25.9139 15.5006C25.9139 10.7065 29.9822 6.82061 35.0013 6.82061C40.0204 6.82061 44.0887 10.7065 44.0887 15.5006ZM36.7134 13.3367L36.6088 13.2828L36.4693 13.2144L36.3774 13.172C36.276 13.1217 36.1746 13.0769 36.0732 13.0376C35.9331 12.9837 35.793 12.9389 35.6529 12.9044V14.6009C36.541 14.8316 37.1831 15.1325 37.5805 15.5048C37.8043 15.7059 37.966 15.9468 38.0661 16.2278C38.0991 16.3198 38.1251 16.4167 38.1447 16.5178C38.1732 16.6655 38.1878 16.8223 38.1878 16.9888V17.0113C38.1878 17.3237 38.1257 17.6064 38.0014 17.8595C37.8842 18.1126 37.7168 18.3354 37.4988 18.5292C37.2807 18.715 37.0196 18.8676 36.7159 18.9863C36.4123 19.0983 36.077 19.1728 35.7112 19.2097V20.3147H34.4961V19.1873C33.9896 19.128 33.499 19.0087 33.0242 18.8301C32.5564 18.6442 32.1279 18.4099 31.7387 18.1271L32.6502 16.855C32.9697 17.0857 33.2771 17.2789 33.5731 17.4351C33.6327 17.4641 33.6936 17.492 33.755 17.518C33.8749 17.5689 33.9978 17.6137 34.124 17.6524C34.2634 17.6954 34.4067 17.7305 34.5544 17.759V15.9844C34.2951 15.9154 34.0549 15.8427 33.8337 15.7652L33.7411 15.7319C33.6378 15.6944 33.5389 15.6562 33.4444 15.6163C33.1332 15.4824 32.872 15.3226 32.6616 15.1361C32.4594 14.9502 32.3035 14.7347 32.1944 14.4889C32.093 14.2437 32.0423 13.9536 32.0423 13.6188V13.5964C32.0423 13.4632 32.0531 13.3348 32.0753 13.2119C32.0892 13.1344 32.1082 13.0588 32.131 12.9849C32.1551 12.9074 32.1843 12.8323 32.2179 12.759C32.3345 12.5066 32.4981 12.2868 32.7085 12.1009L32.7624 12.0549L32.8549 11.9816C32.9348 11.9223 33.0191 11.8678 33.1085 11.8181L33.2162 11.7612L33.2942 11.7243C33.3576 11.6952 33.4235 11.668 33.4914 11.6432C33.556 11.6177 33.6226 11.5941 33.6904 11.5723C33.7563 11.5511 33.8235 11.5318 33.8926 11.5142C34.0834 11.4652 34.2843 11.43 34.4961 11.4088V10.7616H35.7112V11.4421C36.1315 11.4942 36.5175 11.5911 36.8681 11.7328C36.9803 11.7758 37.0918 11.8224 37.2015 11.8738C37.2706 11.9059 37.3397 11.9398 37.4075 11.9756C37.5691 12.0603 37.7276 12.1542 37.8842 12.2571L37.1013 13.5625C36.9746 13.482 36.8452 13.4069 36.7134 13.3367Z" fill="#060070"/>
<path d="M46.0106 8.53045C45.8242 8.63338 45.6886 8.8023 45.6341 9.0015C45.5783 9.19949 45.6074 9.41141 45.7152 9.58941C46.803 11.3858 47.376 13.4251 47.3773 15.5C47.3773 21.9719 41.9563 27.2134 35.2085 27.3194L36.2557 26.3191C36.5727 26.0164 36.5727 25.526 36.2557 25.2232C36.1784 25.1494 36.0877 25.0924 35.9889 25.0537C35.928 25.0301 35.864 25.0131 35.7987 25.004C35.7607 24.9986 35.7214 24.9962 35.6821 24.9962L35.6161 24.9986L35.5724 25.0034C35.4862 25.0143 35.4032 25.0386 35.3258 25.0743L35.2694 25.1033C35.2111 25.1366 35.1572 25.1766 35.1084 25.2232L32.8835 27.349L32.86 27.3654C32.6889 27.4901 32.576 27.6748 32.5475 27.8782C32.5424 27.9133 32.5399 27.9478 32.5399 27.9829C32.5361 28.1858 32.6153 28.391 32.7776 28.546L35.109 30.7729C35.426 31.0757 35.9394 31.0757 36.2564 30.7729L36.2906 30.7378L36.3299 30.6918C36.3495 30.6676 36.3673 30.6422 36.3838 30.6155L36.411 30.5677C36.4288 30.5326 36.444 30.4963 36.456 30.4599C36.5441 30.1929 36.4776 29.889 36.2564 29.6771L35.407 28.8657C42.9413 28.6593 49 22.745 49 15.4994C48.9987 13.1514 48.3496 10.8452 47.1199 8.8126C47.0121 8.63459 46.8346 8.50502 46.6267 8.45174C46.4188 8.39906 46.197 8.42691 46.0106 8.53045Z" fill="#060070"/>
</svg>
