<svg width="175" height="32" viewBox="0 0 175 32" fill="none" xmlns="http://www.w3.org/2000/svg">
<path d="M31.1796 27.7139C31.1387 27.7139 31.1387 27.7139 31.0978 27.7547C30.6886 28.9794 29.1747 30.0409 28.52 30.4899C28.3564 30.6124 26.8425 31.5514 25.4513 31.6739C25.4104 31.6739 25.4104 31.7147 25.4104 31.7147C25.4104 31.7555 25.4104 31.7555 25.4513 31.7555C26.1469 31.9188 26.7606 32.0005 27.2107 32.0005C28.07 32.0005 28.6428 31.7555 29.2156 31.3881C30.1567 30.7757 30.8523 29.9184 31.1796 27.7547C31.2205 27.7547 31.2205 27.7139 31.1796 27.7139Z" fill="#827FB7"/>
<path d="M32.2437 18.5684C32.2028 18.5684 32.2028 18.5684 32.2028 18.6092C31.139 21.6302 28.1521 24.8145 25.8608 26.2842C24.8379 26.9374 23.4467 27.5906 21.9328 28.1213C21.6873 28.897 21.4009 29.6727 21.1145 30.4892C21.1554 30.4892 21.2373 30.4892 21.2782 30.4892C23.324 30.4892 25.3698 29.836 27.3747 28.5296C29.5433 27.1415 31.0572 25.3453 31.8346 23.2632C32.612 21.2628 32.4892 19.4665 32.3665 18.5684C32.3256 18.5684 32.2846 18.5684 32.2437 18.5684Z" fill="#827FB7"/>
<path d="M32.98 6.19903C32.98 6.1582 32.939 6.1582 32.939 6.1582C32.8981 6.1582 32.8981 6.1582 32.8981 6.19903C31.7116 11.3429 28.2746 15.0172 24.7149 17.7524C24.3466 19.6712 23.8147 21.8349 23.1191 24.2844C23.4465 24.0802 23.8147 23.8761 24.142 23.6312C33.1845 17.7932 33.3482 9.465 32.98 6.19903Z" fill="#827FB7"/>
<path d="M29.3384 7.21927C31.7934 4.40237 32.6936 2.19784 31.8752 0.973097C30.9342 -0.455766 27.8654 -0.292468 23.3646 1.34052C23.3237 1.34052 23.3237 1.38134 23.3237 1.42217C23.3237 1.46299 23.3646 1.46299 23.4056 1.46299C24.9604 1.21804 25.9833 1.38134 26.3924 1.99371C26.9653 2.85103 26.2697 4.44319 24.5103 6.4436C24.4694 6.48443 24.4285 6.52525 24.3876 6.6069C24.8785 7.74999 25.2059 9.21968 25.2877 11.1384C26.8834 9.83205 28.2337 8.48484 29.3384 7.21927Z" fill="#827FB7"/>
<path d="M22.8735 2.6056C22.3007 1.70745 20.1322 1.99323 17.3499 3.13632C18.7819 2.93219 20.9914 2.89137 22.7099 4.27941C23.0372 3.58539 23.119 3.01384 22.8735 2.6056Z" fill="#827FB7"/>
<path d="M17.9226 28.9386C17.3498 28.9794 16.7769 28.9794 16.245 28.9386C16.2041 28.9386 16.2041 28.9386 16.2041 28.9794C16.2041 29.0202 16.2041 29.0202 16.245 29.061C16.5723 29.2652 17.0633 29.5509 17.6771 29.7959C18.4954 30.1225 19.5183 30.4083 20.7458 30.4899C20.8686 30.4899 20.9913 30.4899 21.1141 30.4899C21.4005 29.6734 21.6869 28.8569 21.9324 28.1221C20.6231 28.5303 19.2319 28.8161 17.9226 28.9386Z" fill="#827FB7"/>
<path d="M21.6871 19.8741C21.3598 20.0782 20.9915 20.3231 20.6642 20.5272C16.368 23.1808 10.8443 25.7528 4.62505 24.5281C4.58413 24.5281 4.58413 24.5281 4.54321 24.5689C4.54321 24.6097 4.54321 24.6097 4.58413 24.6505C6.22078 25.5895 9.41225 27.0592 13.5039 27.0592C15.1405 27.0592 16.9818 26.8142 18.8639 26.2019C20.2141 25.7936 21.6462 25.1813 23.0783 24.3239C23.8148 21.8745 24.3058 19.7108 24.674 17.792C23.692 18.5268 22.6691 19.2209 21.6871 19.8741Z" fill="#827FB7"/>
<path d="M22.5054 8.56603C20.9506 9.95407 19.1094 11.3829 17.0636 12.7301C13.9948 14.7306 10.8852 16.2819 8.30748 17.0576C5.77068 17.8332 4.05219 17.7924 3.47937 16.9351C3.0702 16.3227 3.3157 15.3021 4.17494 13.9957C4.17494 13.9549 4.17494 13.9549 4.17494 13.9141C4.13403 13.9141 4.13403 13.9141 4.09311 13.9141C0.737976 17.3025 -0.653176 20.0786 0.287897 21.5074C0.69706 22.1606 1.59722 22.4872 2.82471 22.4872C3.92944 22.4872 5.36151 22.2423 7.03908 21.7116C10.5579 20.6093 14.8541 18.5272 19.0685 15.792C20.1732 15.098 21.1961 14.3631 22.219 13.6283C23.3237 12.8118 24.3876 11.9953 25.3286 11.138C25.2877 9.21922 24.9604 7.74954 24.4285 6.60645C23.8557 7.25964 23.2419 7.91283 22.5054 8.56603Z" fill="#827FB7"/>
<path d="M17.3497 3.13685H17.3088C15.8358 3.74922 14.1992 4.64736 12.5216 5.7088C10.1894 7.21932 8.18448 8.89313 6.83425 10.4036C5.48401 11.955 4.99302 13.1797 5.4431 13.8737C5.68859 14.2412 6.17959 14.4045 6.87516 14.4045C7.48891 14.4045 8.26632 14.282 9.20739 13.9962C11.1714 13.3838 13.5036 12.2408 15.8358 10.7302C18.4954 9.0156 20.6639 7.09684 21.8914 5.54551C22.2597 5.09643 22.5461 4.64736 22.7507 4.23912C20.9913 2.8919 18.7818 2.93273 17.3497 3.13685ZM14.281 8.48488C11.0895 10.5669 8.02082 11.7509 7.57074 11.0568C7.36616 10.7302 7.77532 10.0362 8.7164 9.09725C9.69839 8.11746 11.0895 7.01519 12.6853 5.99458C15.263 4.32077 17.7998 3.2185 18.8636 3.2185C19.1091 3.2185 19.3137 3.25932 19.3955 3.42262C19.8456 4.07582 17.5134 6.40282 14.281 8.48488Z" fill="#827FB7"/>
<path d="M43.4133 25.2238L46.1547 23.1417C47.6686 25.1013 49.428 27.0609 54.3789 27.0609C58.8797 27.0609 61.2119 25.0197 61.2119 21.9578C61.2119 19.3859 59.1252 18.5286 54.1334 17.3038C49.9599 16.324 44.3135 14.8543 44.3135 9.34301C44.3135 4.72982 47.7505 1.66797 53.4378 1.66797C57.1203 1.66797 60.1072 2.52529 63.3805 6.28116L60.6391 8.36321C57.8977 5.66879 55.9746 5.01559 53.3969 5.01559C49.6326 5.01559 47.7505 6.81188 47.7505 9.26136C47.7505 11.915 49.8781 12.7315 54.9517 13.997C58.9615 14.9768 64.6489 16.4465 64.6489 21.9987C64.6489 27.6325 59.9844 30.4902 54.3789 30.4902C50.5328 30.4902 46.973 29.7145 43.4133 25.2238Z" fill="#827FB7"/>
<path d="M84.9431 30.4902L73.4047 9.34301V30.4902H69.9678V1.66797H73.1592L85.5569 24.4073V1.66797H88.9938V30.4494H84.9431V30.4902Z" fill="#827FB7"/>
<path d="M93.3718 30.4894L103.437 1.70801H106.301L116.326 30.4486H112.684L109.452 21.263C109.452 21.263 108.797 21.5896 107.529 21.5896L101.637 21.5488C100.164 21.5488 99.7548 22.3245 99.7138 22.4878L96.9315 30.4894H93.3718ZM101.105 18.5278C101.105 18.5278 101.432 18.3236 102.128 18.3236H106.833C107.979 18.3236 108.265 17.9154 108.265 17.9154L104.828 7.99501L101.105 18.5278Z" fill="#827FB7"/>
<path d="M132.733 1.66797C136.989 1.66797 140.385 5.13807 140.385 9.34301C140.385 13.6296 136.948 17.0997 132.692 17.0997H125.409C124.223 17.0997 124.1 17.7529 124.1 17.8754V30.4494H120.663V1.66797H132.733ZM136.907 9.34301C136.907 7.016 135.025 5.05642 132.692 5.05642H124.1V13.8337C124.1 13.8337 124.346 13.6296 125.491 13.6296H132.692C135.025 13.6296 136.907 11.67 136.907 9.34301Z" fill="#827FB7"/>
<path d="M146.154 2.60645H147.954V30.4897H146.154V2.60645Z" fill="#827FB7"/>
<path d="M175 4.36191H165.303V30.4489H163.503V4.36191H154.378V2.60645H175V4.36191Z" fill="#827FB7"/>
</svg>
