<svg width="213" height="32" viewBox="0 0 213 32" fill="none" xmlns="http://www.w3.org/2000/svg">
<path d="M31.0528 27.7139C31.0121 27.7139 31.0121 27.7139 30.9713 27.7547C30.5638 28.9794 29.0561 30.0409 28.4041 30.49C28.2411 30.6124 26.7334 31.5514 25.3479 31.6739C25.3071 31.6739 25.3071 31.7147 25.3071 31.7147C25.3071 31.7555 25.3071 31.7555 25.3479 31.7555C26.0406 31.9188 26.6519 32.0005 27.1001 32.0005C27.9559 32.0005 28.5264 31.7555 29.0969 31.3881C30.0341 30.7757 30.7268 29.9184 31.0528 27.7547C31.0936 27.7139 31.0936 27.7139 31.0528 27.7139Z" fill="#827FB7"/>
<path d="M32.1533 18.5283C32.1125 18.5283 32.1125 18.5283 32.1125 18.5691C31.053 21.5902 28.0783 24.7745 25.7963 26.2442C24.7776 26.8974 23.3921 27.5506 21.8843 28.0813C21.6398 28.857 21.3546 29.6327 21.0693 30.4492C21.1101 30.4492 21.1916 30.4492 21.2323 30.4492C23.2698 30.4492 25.3073 29.796 27.304 28.4896C29.4638 27.1015 30.9715 25.3052 31.7458 23.2232C32.52 21.2228 32.3977 19.4265 32.2755 18.5283C32.194 18.5691 32.1533 18.5283 32.1533 18.5283Z" fill="#827FB7"/>
<path d="M32.8458 6.15801C32.8458 6.11719 32.8051 6.11719 32.8051 6.11719C32.7643 6.11719 32.7643 6.11719 32.7643 6.15801C31.6234 11.3428 28.2004 15.017 24.6552 17.7114C24.2884 19.6302 23.7587 21.7939 23.0659 24.2434C23.3919 24.0393 23.7587 23.8352 24.0847 23.5902C33.0496 17.7931 33.2126 9.46483 32.8458 6.15801Z" fill="#827FB7"/>
<path d="M29.2187 7.21931C31.6637 4.40239 32.5602 2.19785 31.7452 0.973102C30.808 -0.455768 27.7517 -0.292469 23.2693 1.34053C23.2285 1.34053 23.2285 1.38135 23.2285 1.42218C23.2285 1.463 23.2693 1.463 23.31 1.463C24.8993 1.21805 25.918 1.38135 26.3255 2.03455C26.896 2.89187 26.2032 4.48404 24.451 6.48446C24.4103 6.52528 24.3695 6.56611 24.3288 6.64776C24.8178 7.79085 25.1437 9.26055 25.2252 11.1793C26.7737 9.8321 28.1185 8.48488 29.2187 7.21931Z" fill="#827FB7"/>
<path d="M22.7805 2.6056C22.21 1.70745 20.0503 1.99323 17.2793 3.13632C18.7055 2.89137 20.906 2.89137 22.6175 4.27942C22.9843 3.5854 23.025 3.01385 22.7805 2.6056Z" fill="#827FB7"/>
<path d="M17.8907 28.8976C17.3202 28.9384 16.7497 28.9384 16.2199 28.8976C16.1792 28.8976 16.1792 28.8976 16.1792 28.9384C16.1792 28.9792 16.1792 28.9792 16.2199 29.02C16.5459 29.2241 17.0349 29.5099 17.6462 29.7549C18.4612 30.0815 19.4799 30.3672 20.7024 30.4489C20.8247 30.4489 20.9469 30.4489 21.0692 30.4489C21.3544 29.6324 21.6397 28.8159 21.8842 28.0811C20.5394 28.4893 19.1539 28.8159 17.8907 28.8976Z" fill="#827FB7"/>
<path d="M21.5985 19.834C21.2725 20.0381 20.9058 20.2831 20.5798 20.4872C16.3011 23.1408 10.7999 25.7128 4.60591 24.4881C4.56516 24.4881 4.56516 24.4881 4.52441 24.5289C4.52441 24.5697 4.52441 24.5697 4.56516 24.6105C6.19515 25.5495 9.37363 27.0192 13.4486 27.0192C15.0786 27.0192 16.9123 26.7742 18.7868 26.1619C20.1315 25.7536 21.5578 25.1413 22.984 24.2839C23.7175 21.8344 24.2065 19.6707 24.5733 17.752C23.5953 18.5276 22.5765 19.2216 21.5985 19.834Z" fill="#827FB7"/>
<path d="M22.4138 8.56604C20.8653 9.95408 19.0316 11.383 16.9941 12.7302C13.9379 14.6898 10.8409 16.2411 8.27366 17.0168C5.74718 17.7925 4.0357 17.7516 3.4652 16.8943C3.0577 16.2819 3.3022 15.2613 4.15795 13.9549C4.15795 13.9141 4.15795 13.9141 4.15795 13.8733C4.1172 13.8733 4.1172 13.8733 4.07645 13.8733C0.734972 17.3026 -0.650517 20.0787 0.286725 21.5075C0.694222 22.1607 1.59072 22.4873 2.81321 22.4873C3.91345 22.4873 5.33969 22.2424 7.01042 21.7116C10.5149 20.6094 14.7936 18.5273 18.9908 15.792C20.0911 15.098 21.1098 14.3632 22.1286 13.6283C23.2288 12.8118 24.2883 11.9953 25.2255 11.138C25.1848 9.21924 24.8588 7.74954 24.329 6.60645C23.7993 7.25964 23.1473 7.91284 22.4138 8.56604Z" fill="#827FB7"/>
<path d="M17.2794 3.13685H17.2386C15.7716 3.74922 14.1416 4.64737 12.4709 5.70882C10.1482 7.21934 8.15142 8.89316 6.80668 10.4037C5.46194 11.955 4.97295 13.1798 5.42119 13.8738C5.66569 14.2412 6.15469 14.4045 6.84743 14.4045C7.45868 14.4045 8.23292 14.282 9.17016 13.9963C11.1261 13.3839 13.4489 12.2408 15.7716 10.7303C18.4203 9.01563 20.5801 7.09686 21.8026 5.54552C22.1693 5.09644 22.4546 4.64737 22.6583 4.23912C20.9061 2.8919 18.7056 2.93273 17.2794 3.13685ZM14.2639 8.48491C11.0854 10.567 8.02917 11.7509 7.58093 11.0569C7.37718 10.7303 7.78467 10.0363 8.72192 9.09728C9.69991 8.11748 11.0854 7.01521 12.6746 5.99459C15.2419 4.32077 17.7683 3.2185 18.8278 3.2185C19.0723 3.2185 19.2761 3.25932 19.3576 3.42262C19.7651 4.07582 17.4424 6.40284 14.2639 8.48491Z" fill="#827FB7"/>
<path d="M61.6964 4.93359V10.4041H55.2987V29.8368H49.6345V10.445H43.2368V4.93359H61.6964Z" fill="#827FB7"/>
<path d="M85.2089 26.6113C82.6824 29.1016 79.6262 30.3263 76.0402 30.3263C72.4542 30.3263 69.398 29.1016 66.8715 26.6113C64.345 24.1209 63.1226 21.0591 63.1226 17.3848C63.1226 13.7514 64.3858 10.6487 66.8715 8.15842C69.398 5.66811 72.4135 4.44336 76.0402 4.44336C79.6262 4.44336 82.6824 5.66811 85.2089 8.15842C87.7354 10.6487 88.9579 13.7106 88.9579 17.3848C88.9579 21.0591 87.7354 24.1209 85.2089 26.6113ZM70.865 22.7329C72.2505 24.1209 73.962 24.815 76.0402 24.815C78.1184 24.815 79.8299 24.1209 81.1747 22.7329C82.5602 21.3449 83.2529 19.5486 83.2529 17.3848C83.2529 15.2211 82.5602 13.4657 81.1747 12.0368C79.7892 10.6487 78.0777 9.95472 76.0402 9.95472C73.962 9.95472 72.2505 10.6487 70.865 12.0368C69.4795 13.4248 68.7868 15.1803 68.7868 17.3848C68.8275 19.5894 69.5203 21.3449 70.865 22.7329Z" fill="#827FB7"/>
<path d="M101.59 4.93359C104.035 4.93359 106.113 5.75009 107.784 7.42391C109.455 9.09773 110.311 11.139 110.311 13.466C110.311 15.793 109.455 17.8342 107.784 19.5081C106.113 21.1819 104.076 21.9984 101.59 21.9984H97.882V29.8368H92.2178V4.93359H101.59ZM101.59 16.6912C102.446 16.6912 103.179 16.3646 103.75 15.7522C104.32 15.1398 104.606 14.3641 104.606 13.466C104.606 12.5678 104.32 11.7922 103.75 11.1798C103.179 10.5674 102.446 10.2408 101.59 10.2408H97.882V16.6503H101.59V16.6912Z" fill="#827FB7"/>
<path d="M115.934 28.0805H128.363V29.8768H114.06V4.97363H128.2V6.76993H115.975V16.4454H127.344V18.2417H115.975V28.0805H115.934Z" fill="#827FB7"/>
<path d="M139.61 29.8368L130.359 4.93359H132.438L140.628 27.3873L148.86 4.93359H150.897L141.647 29.8368H139.61Z" fill="#827FB7"/>
<path d="M156.358 28.0805H168.787V29.8768H154.483V4.97363H168.624V6.76993H156.399V16.4454H167.768V18.2417H156.399V28.0805H156.358Z" fill="#827FB7"/>
<path d="M189.691 4.93359H191.566V29.8368H189.895L175.225 8.44453V29.8368H173.351V4.93359H174.981L189.691 26.3258V4.93359Z" fill="#827FB7"/>
<path d="M213 4.93359V6.72989H205.217V29.8368H203.301V6.72989H195.478V4.93359H213Z" fill="#827FB7"/>
</svg>
