<svg width="113" height="60" viewBox="0 0 113 60" fill="none" xmlns="http://www.w3.org/2000/svg">
<path d="M69.9501 32.2108C69.9169 32.2031 69.8817 32.2211 69.8708 32.2543C69.3936 33.6567 67.6167 34.9303 66.8749 35.4129C66.6807 35.539 64.9301 36.6507 63.3225 36.7678C63.2899 36.7703 63.2637 36.796 63.2605 36.8287C63.258 36.8613 63.2791 36.8914 63.311 36.8991C64.1378 37.1013 64.808 37.1909 65.3754 37.1909C66.3702 37.1909 67.0481 36.9157 67.6979 36.4933C68.7904 35.7822 69.5999 34.7953 69.9993 32.287C70.0057 32.2518 69.9839 32.2191 69.9501 32.2108Z" fill="#827FB7"/>
<path d="M71.2096 21.557C71.1776 21.5538 71.1502 21.5724 71.14 21.6012C69.9068 25.09 66.4253 28.8041 63.7764 30.5278C62.588 31.3009 60.9651 32.0638 59.2049 32.6444C58.902 33.5423 58.5794 34.4665 58.2363 35.4196C58.2989 35.4208 58.3608 35.4221 58.4235 35.4221C60.799 35.4221 63.1707 34.6624 65.4829 33.1577C67.9933 31.5249 69.7324 29.4698 70.6518 27.0498C71.5374 24.7194 71.4192 22.6438 71.269 21.6134C71.2652 21.5839 71.2403 21.5602 71.2096 21.557Z" fill="#827FB7"/>
<path d="M72.0463 7.17712C72.0424 7.14447 72.0163 7.11951 71.9837 7.11759C71.9524 7.11375 71.9223 7.13807 71.9147 7.17008C70.5761 13.1967 66.5829 17.4548 62.4605 20.6205C62.0465 22.8619 61.4382 25.3894 60.6006 28.2375C61.0012 28.0045 61.4037 27.7575 61.8088 27.4938C72.2961 20.6717 72.4616 11.0135 72.0463 7.17712Z" fill="#827FB7"/>
<path d="M67.8344 8.39972C70.6687 5.14003 71.7203 2.56068 70.7971 1.13532C69.7224 -0.522366 66.131 -0.358517 60.9436 1.58591C60.911 1.59807 60.8938 1.63263 60.9027 1.66591C60.9117 1.6992 60.943 1.71968 60.9781 1.71456C62.7824 1.4099 63.9836 1.63135 64.4519 2.35459C65.0953 3.34729 64.3273 5.18291 62.2892 7.52288C62.2393 7.58048 62.187 7.63808 62.1358 7.69568C62.7134 9.01672 63.0923 10.7339 63.1632 12.9542C64.9676 11.4156 66.5495 9.87693 67.8344 8.39972Z" fill="#827FB7"/>
<path d="M60.3171 3.03088C59.6354 1.97866 57.1161 2.30444 53.9043 3.65811C55.575 3.39314 58.1243 3.36306 60.1274 4.97659C60.5293 4.16438 60.6155 3.49042 60.3171 3.03088Z" fill="#827FB7"/>
<path d="M54.5968 33.6228C53.9233 33.6772 53.2659 33.6855 52.641 33.6363C52.611 33.6343 52.5822 33.6529 52.5726 33.6817C52.5631 33.7111 52.5746 33.7431 52.6001 33.7591C52.9777 33.9979 53.5342 34.3102 54.2428 34.5989C55.1833 34.9829 56.3915 35.3266 57.8086 35.4047C57.9511 35.4123 58.0936 35.4168 58.2361 35.4187C58.5792 34.4657 58.9018 33.5415 59.2047 32.6436C57.7077 33.1389 56.111 33.5006 54.5968 33.6228Z" fill="#827FB7"/>
<path d="M58.9505 23.0849C58.5614 23.3383 58.1608 23.5931 57.7512 23.8471C52.7676 26.9436 46.3426 29.9332 39.1637 28.4759C39.1311 28.4701 39.0998 28.4874 39.0883 28.5175C39.0768 28.5482 39.0889 28.5828 39.117 28.5988C41.0127 29.7035 44.7057 31.404 49.4714 31.404C51.3933 31.404 53.489 31.1276 55.7118 30.4235C57.2835 29.9262 58.9185 29.2151 60.5995 28.2372C61.4372 25.389 62.0454 22.8615 62.4595 20.6201C61.2813 21.5257 60.0916 22.3424 58.9505 23.0849Z" fill="#827FB7"/>
<path d="M59.8878 9.95271C58.1001 11.5829 55.9386 13.2393 53.567 14.7825C49.9986 17.1039 46.388 18.8896 43.3998 19.8099C40.4364 20.7233 38.4507 20.6798 37.8066 19.6864C37.3383 18.9638 37.6252 17.774 38.6359 16.2469C38.6551 16.2181 38.6487 16.1797 38.6225 16.1579C38.5957 16.1361 38.5574 16.1381 38.5331 16.163C34.6497 20.1191 33.039 23.3391 34.1143 24.9974C34.6043 25.754 35.6177 26.1329 37.077 26.1329C38.3676 26.1329 40.0077 25.8359 41.9443 25.2413C46.0443 23.9811 50.9946 21.5355 55.8837 18.3551C57.1488 17.5321 58.3704 16.6853 59.5351 15.8264C60.8194 14.8791 62.0346 13.9165 63.1629 12.9539C63.092 10.733 62.7131 9.0157 62.1356 7.69531C61.48 8.43263 60.7248 9.18979 59.8878 9.95271Z" fill="#827FB7"/>
<path d="M53.904 3.65827C53.8867 3.66531 53.8701 3.67235 53.8528 3.67939C52.1418 4.40519 50.2372 5.42092 48.3108 6.67411C45.6216 8.42269 43.2863 10.3678 41.7363 12.1496C40.1684 13.9526 39.5895 15.3831 40.1058 16.1793C40.3799 16.603 40.946 16.8148 41.7599 16.8148C42.473 16.8148 43.3771 16.6529 44.4421 16.3239C46.6982 15.6314 49.4226 14.2861 52.1124 12.5368C55.1971 10.5297 57.7011 8.32604 59.1451 6.4853C59.568 5.94639 59.8983 5.43885 60.1277 4.97546C58.1241 3.36321 55.5747 3.39393 53.904 3.65827ZM50.3714 9.85317C46.656 12.2706 43.0863 13.6499 42.5771 12.8645C42.3394 12.4972 42.8225 11.66 43.9035 10.5675C45.0216 9.43715 46.6515 8.15515 48.4936 6.95701C51.501 5.00042 54.4119 3.72419 55.6834 3.72419C55.983 3.72419 56.1913 3.79523 56.2891 3.945C56.7976 4.72969 54.0873 7.43512 50.3714 9.85317Z" fill="#827FB7"/>
<path d="M11.9958 44.7526C12.1709 44.928 12.2577 45.1514 12.2577 45.424C12.2577 45.6967 12.1702 45.9201 11.9958 46.0954C11.8214 46.2708 11.5977 46.3578 11.3256 46.3578H7.14891V58.676C7.14891 58.9614 7.0518 59.2014 6.85757 59.396C6.66333 59.5906 6.42374 59.6879 6.13878 59.6879C5.85382 59.6879 5.61422 59.5906 5.41999 59.396C5.22575 59.2014 5.12864 58.9614 5.12864 58.676V46.3585H0.932189C0.660008 46.3585 0.437024 46.2708 0.261959 46.0961C0.0868936 45.9213 0 45.6967 0 45.424C0 45.1514 0.0875325 44.928 0.261959 44.7526C0.436385 44.5773 0.660008 44.4902 0.932189 44.4902H11.3249C11.5971 44.4902 11.8207 44.5779 11.9958 44.7526Z" fill="#827FB7"/>
<path d="M16.5219 58.8903C15.3495 58.2285 14.4403 57.3043 13.7924 56.117C13.1446 54.9297 12.8213 53.5844 12.8213 52.079C12.8213 50.5743 13.1446 49.2315 13.7924 48.0506C14.4397 46.8704 15.3495 45.9488 16.5219 45.2876C17.6937 44.6258 19.031 44.2949 20.5337 44.2949C22.0231 44.2949 23.3533 44.6258 24.5257 45.2876C25.6975 45.9494 26.6105 46.8704 27.2648 48.0506C27.9184 49.2315 28.2455 50.5743 28.2455 52.079C28.2455 53.5844 27.9184 54.9297 27.2648 56.117C26.6105 57.3043 25.7007 58.2285 24.5353 58.8903C23.3699 59.5521 22.0358 59.883 20.5337 59.883C19.031 59.8823 17.6937 59.5521 16.5219 58.8903ZM23.5054 57.2652C24.3858 56.7398 25.072 56.0229 25.5646 55.1147C26.0566 54.2065 26.3026 53.1946 26.3026 52.079C26.3026 50.9634 26.0566 49.9515 25.5646 49.0433C25.072 48.1351 24.3896 47.4221 23.5149 46.9031C22.6409 46.3846 21.6467 46.1248 20.5331 46.1248C19.4188 46.1248 18.4253 46.3846 17.5512 46.9031C16.6772 47.4221 15.9935 48.1358 15.5016 49.0433C15.009 49.9515 14.7636 50.9634 14.7636 52.079C14.7636 53.1946 15.0096 54.2071 15.5016 55.1147C15.9935 56.0229 16.6797 56.7398 17.5608 57.2652C18.4412 57.7907 19.4322 58.0531 20.5331 58.0531C21.6339 58.0531 22.6249 57.7907 23.5054 57.2652Z" fill="#827FB7"/>
<path d="M31.7024 59.396C31.5082 59.2014 31.4111 58.9614 31.4111 58.676V45.5021C31.4111 45.2039 31.5082 44.9606 31.7024 44.7725C31.8967 44.5843 32.1363 44.4902 32.4212 44.4902H36.3065C37.2649 44.4902 38.123 44.704 38.8807 45.1322C39.6385 45.5604 40.2276 46.1569 40.6486 46.9224C41.0691 47.6878 41.2799 48.557 41.2799 49.5299C41.2799 50.4771 41.0691 51.32 40.6486 52.0599C40.2276 52.7992 39.6385 53.3765 38.8807 53.7919C38.123 54.2072 37.2649 54.4146 36.3065 54.4146H33.4314V58.676C33.4314 58.9614 33.3374 59.2014 33.1496 59.396C32.9618 59.5906 32.719 59.6879 32.4212 59.6879C32.1363 59.6879 31.8967 59.5906 31.7024 59.396ZM36.3065 52.5463C37.187 52.5463 37.9121 52.2641 38.4821 51.6996C39.052 51.1351 39.3369 50.4125 39.3369 49.5299C39.3369 48.6088 39.052 47.8498 38.4821 47.2533C37.9121 46.6567 37.187 46.3578 36.3065 46.3578H33.4314V52.5463H36.3065Z" fill="#827FB7"/>
<path d="M55.0815 52.4497C55.1914 52.5533 55.2463 52.6897 55.2463 52.858V57.801C55.2463 57.8919 55.2399 57.9661 55.2272 58.025C55.2144 58.0833 55.1754 58.1453 55.1109 58.21C53.9972 59.3262 52.4038 59.8837 50.3324 59.8837C48.9727 59.8837 47.7102 59.5304 46.5442 58.8231C45.3788 58.1165 44.4524 57.1629 43.7662 55.9628C43.0793 54.7627 42.7368 53.4692 42.7368 52.0804C42.7368 50.6921 43.0768 49.4018 43.7566 48.2081C44.4364 47.0145 45.3558 46.0647 46.5148 45.3574C47.6738 44.6508 48.9459 44.2969 50.3317 44.2969C52.145 44.2969 53.7442 44.8742 55.13 46.0288C55.2463 46.1197 55.3051 46.2496 55.3051 46.418C55.3051 46.5735 55.2534 46.713 55.1499 46.8366C55.0463 46.9601 54.9039 47.0215 54.7224 47.0215C54.5799 47.0215 54.4176 46.9434 54.2368 46.7879C53.2522 45.9059 51.9508 45.465 50.3324 45.465C49.1925 45.465 48.1274 45.7696 47.1371 46.3796C46.1461 46.9895 45.3596 47.8036 44.7769 48.8219C44.1942 49.8409 43.9029 50.927 43.9029 52.0816C43.9029 53.2753 44.191 54.3813 44.7673 55.3996C45.3437 56.4185 46.127 57.2256 47.1179 57.8221C48.1089 58.4193 49.1804 58.7175 50.333 58.7175C51.7444 58.7175 52.9941 58.3156 54.0822 57.5111V53.347H50.8186C50.6499 53.347 50.5106 53.2951 50.4007 53.1915C50.2908 53.0878 50.2359 52.9578 50.2359 52.8023C50.2359 52.6596 50.2908 52.5399 50.4007 52.4426C50.5106 52.3453 50.6499 52.2967 50.8186 52.2967H54.6649C54.8323 52.2941 54.9716 52.346 55.0815 52.4497Z" fill="#827FB7"/>
<path d="M67.7961 59.2405C67.7961 59.3832 67.7405 59.4933 67.6312 59.5714C67.5213 59.6495 67.3622 59.6879 67.1552 59.6879C67.0255 59.6879 66.922 59.6623 66.8441 59.6098C66.7661 59.5579 66.6952 59.4805 66.6307 59.3762L63.0565 53.6549H59.5795V59.1035C59.5795 59.2725 59.5278 59.412 59.4243 59.5221C59.3207 59.6322 59.1783 59.6872 58.9968 59.6872C58.8281 59.6872 58.6889 59.6322 58.579 59.5221C58.4691 59.412 58.4141 59.2725 58.4141 59.1035V45.0739C58.4141 44.8922 58.4691 44.7501 58.579 44.6457C58.6889 44.5421 58.8281 44.4902 58.9968 44.4902H62.707C63.6392 44.4902 64.4749 44.6848 65.2129 45.0739C65.9509 45.4631 66.5272 46.0077 66.9418 46.7086C67.3558 47.4094 67.5635 48.2069 67.5635 49.1023C67.5635 50.1661 67.269 51.0839 66.6799 51.8557C66.0901 52.6276 65.2972 53.1563 64.2999 53.4418L67.6408 58.7931C67.7437 58.9749 67.7961 59.124 67.7961 59.2405ZM62.7064 52.4881C63.4188 52.4881 64.0533 52.3454 64.6104 52.0599C65.1669 51.7745 65.6039 51.3725 65.9215 50.8534C66.2384 50.335 66.3975 49.7507 66.3975 49.1023C66.3975 48.4405 66.2384 47.8472 65.9215 47.3217C65.6039 46.7963 65.1669 46.3879 64.6104 46.0961C64.0533 45.8042 63.4188 45.6583 62.7064 45.6583H59.5789V52.4887H62.7064V52.4881Z" fill="#827FB7"/>
<path d="M73.2643 58.8611C72.0791 58.1801 71.1469 57.2457 70.4671 56.0591C69.7872 54.8718 69.4473 53.5456 69.4473 52.0793C69.4473 50.6264 69.7872 49.306 70.4671 48.1194C71.1469 46.9322 72.0797 45.9983 73.2643 45.3173C74.4495 44.6363 75.7733 44.2959 77.2371 44.2959C78.6874 44.2959 80.0055 44.6363 81.1901 45.3173C82.3753 45.9983 83.3075 46.9328 83.9873 48.1194C84.6671 49.3067 85.007 50.6264 85.007 52.0793C85.007 53.5456 84.6671 54.8718 83.9873 56.0591C83.3075 57.2463 82.3747 58.1801 81.1901 58.8611C80.0049 59.5421 78.6874 59.8826 77.2371 59.8826C75.7733 59.8826 74.4495 59.5421 73.2643 58.8611ZM80.5978 57.8492C81.608 57.2719 82.4009 56.477 82.9778 55.4651C83.5541 54.4532 83.8423 53.3248 83.8423 52.0793C83.8423 50.8473 83.5541 49.7246 82.9778 48.7127C82.4015 47.7008 81.6086 46.9066 80.5978 46.3286C79.5877 45.7513 78.4677 45.4626 77.2371 45.4626C75.9938 45.4626 74.8673 45.7513 73.8572 46.3286C72.8471 46.9059 72.0535 47.7002 71.4772 48.7127C70.9009 49.7246 70.6127 50.8466 70.6127 52.0793C70.6127 53.3248 70.9009 54.4532 71.4772 55.4651C72.0535 56.477 72.8464 57.2719 73.8572 57.8492C74.8673 58.4265 75.9938 58.7152 77.2371 58.7152C78.467 58.7152 79.5871 58.4265 80.5978 57.8492Z" fill="#827FB7"/>
<path d="M90.922 59.3282C90.0345 58.8808 89.3451 58.258 88.8532 57.4599C88.3606 56.6618 88.1152 55.751 88.1152 54.7257V45.0739C88.1152 44.8922 88.1702 44.7501 88.28 44.6457C88.3899 44.5421 88.5292 44.4902 88.6979 44.4902C88.8794 44.4902 89.0212 44.5421 89.1254 44.6457C89.2289 44.7494 89.2806 44.8922 89.2806 45.0739V54.7257C89.2806 55.5174 89.478 56.224 89.8729 56.8467C90.2677 57.4695 90.8178 57.9559 91.5239 58.306C92.2292 58.6561 93.0356 58.8315 93.9422 58.8315C94.8488 58.8315 95.6545 58.6561 96.3605 58.306C97.0659 57.9559 97.6198 57.4695 98.0217 56.8467C98.423 56.224 98.6236 55.5174 98.6236 54.7257V45.0739C98.6236 44.8922 98.6785 44.7501 98.7884 44.6457C98.8983 44.5421 99.0376 44.4902 99.2063 44.4902C99.3877 44.4902 99.5296 44.5421 99.6337 44.6457C99.7372 44.7494 99.789 44.8922 99.789 45.0739V54.7257C99.789 55.7504 99.5392 56.6618 99.0408 57.4599C98.5424 58.258 97.8492 58.8801 96.9624 59.3282C96.0749 59.7755 95.0686 59.9996 93.9416 59.9996C92.8145 59.9996 91.8088 59.7755 90.922 59.3282Z" fill="#827FB7"/>
<path d="M103.84 59.5227C103.73 59.4126 103.676 59.2731 103.676 59.1041V45.0739C103.676 44.8922 103.73 44.7501 103.84 44.6457C103.95 44.5421 104.09 44.4902 104.258 44.4902H108.144C109.076 44.4902 109.911 44.6982 110.649 45.113C111.387 45.5284 111.964 46.1057 112.378 46.8449C112.792 47.5841 113 48.4213 113 49.3551C113 50.3024 112.792 51.1453 112.378 51.8852C111.964 52.6244 111.387 53.2017 110.649 53.6171C109.911 54.0325 109.076 54.2399 108.144 54.2399H104.841V59.1048C104.841 59.2738 104.789 59.4133 104.686 59.5234C104.582 59.6335 104.44 59.6885 104.258 59.6885C104.09 59.6879 103.95 59.6328 103.84 59.5227ZM108.143 53.0718C108.855 53.0718 109.49 52.9131 110.047 52.595C110.603 52.2775 111.04 51.8359 111.358 51.272C111.675 50.7075 111.834 50.0688 111.834 49.3551C111.834 48.6415 111.675 48.0059 111.358 47.4478C111.04 46.8904 110.603 46.4526 110.047 46.1345C109.49 45.817 108.855 45.6576 108.143 45.6576H104.84V53.0718H108.143Z" fill="#827FB7"/>
</svg>
