<svg width="144" height="32" viewBox="0 0 144 32" fill="none" xmlns="http://www.w3.org/2000/svg">
<path d="M31.156 27.7139C31.1151 27.7139 31.1151 27.7139 31.0742 27.7547C30.6653 28.9794 29.1526 30.0409 28.4984 30.49C28.3349 30.6124 26.8221 31.5514 25.432 31.6739C25.3911 31.6739 25.3911 31.7147 25.3911 31.7147C25.3911 31.7555 25.3911 31.7555 25.432 31.7555C26.1271 31.9188 26.7403 32.0005 27.1901 32.0005C28.0487 32.0005 28.6211 31.7555 29.1935 31.3881C30.1338 30.7757 30.8289 29.9184 31.156 27.7547C31.1968 27.7547 31.1968 27.7139 31.156 27.7139Z" fill="#827FB7"/>
<path d="M32.26 18.5684C32.2191 18.5684 32.2191 18.5684 32.2191 18.6092C31.1561 21.6302 28.1714 24.8146 25.8819 26.2843C24.8597 26.9375 23.4696 27.5907 21.9569 28.1214C21.7116 28.897 21.4254 29.6727 21.1392 30.4892C21.18 30.4892 21.2618 30.4892 21.3027 30.4892C23.347 30.4892 25.3912 29.836 27.3946 28.5296C29.5615 27.1416 31.0743 25.3453 31.8511 23.2632C32.6279 21.2628 32.5053 19.4665 32.3826 18.5684C32.3009 18.5684 32.26 18.5684 32.26 18.5684Z" fill="#827FB7"/>
<path d="M32.9549 6.19903C32.9549 6.1582 32.914 6.1582 32.914 6.1582C32.8732 6.1582 32.8732 6.1582 32.8732 6.19903C31.6875 11.343 28.2531 15.0172 24.6961 17.7525C24.3281 19.6712 23.7966 21.835 23.1016 24.2844C23.4286 24.0803 23.7966 23.8762 24.1237 23.6312C33.2002 17.7933 33.3229 9.46502 32.9549 6.19903Z" fill="#827FB7"/>
<path d="M29.3573 7.21931C31.8104 4.40239 32.7099 2.19785 31.8922 0.973102C30.9518 -0.455768 27.8854 -0.292469 23.3881 1.34053C23.3472 1.34053 23.3472 1.38135 23.3472 1.42218C23.3472 1.463 23.3881 1.463 23.4289 1.463C24.9826 1.21805 26.0047 1.38135 26.4136 1.99372C26.986 2.85105 26.2909 4.44321 24.5328 6.44363C24.492 6.48446 24.4511 6.52528 24.4102 6.60693C24.9008 7.75003 25.2279 9.21972 25.3097 11.1385C26.8633 9.8321 28.2125 8.48488 29.3573 7.21931Z" fill="#827FB7"/>
<path d="M22.8564 2.6056C22.284 1.70745 20.1171 1.99323 17.3369 3.13632C18.7679 2.89137 20.9757 2.89137 22.6929 4.27942C23.0609 3.5854 23.1018 3.01385 22.8564 2.6056Z" fill="#827FB7"/>
<path d="M17.9501 28.9386C17.3777 28.9794 16.8053 28.9794 16.2738 28.9386C16.2329 28.9386 16.2329 28.9386 16.2329 28.9794C16.2329 29.0202 16.2329 29.0202 16.2738 29.061C16.6009 29.2652 17.0915 29.5509 17.7048 29.7959C18.5225 30.1225 19.5446 30.4083 20.7712 30.4899C20.8938 30.4899 21.0165 30.4899 21.1392 30.4899C21.4254 29.6734 21.7115 28.8569 21.9569 28.1221C20.6076 28.5303 19.2584 28.8161 17.9501 28.9386Z" fill="#827FB7"/>
<path d="M21.671 19.875C21.3439 20.0792 20.976 20.3241 20.6489 20.5282C16.3559 23.1819 10.8364 25.7538 4.62181 24.5291C4.58092 24.5291 4.58092 24.5291 4.54004 24.5699C4.54004 24.6107 4.54004 24.6107 4.58092 24.6515C6.21634 25.5905 9.4054 27.0602 13.4939 27.0602C15.1293 27.0602 16.9692 26.8153 18.8499 26.2029C20.1991 25.7946 21.6301 25.1823 23.0611 24.3249C23.797 21.8755 24.2877 19.7117 24.6556 17.793C23.6744 18.5278 22.6523 19.2218 21.671 19.875Z" fill="#827FB7"/>
<path d="M22.4884 8.56604C20.9348 9.95408 19.0949 11.383 17.0507 12.7302C13.9843 14.7306 10.877 16.2819 8.30121 17.0576C5.72543 17.8333 4.00825 17.7925 3.47674 16.9351C3.06789 16.3228 3.3132 15.3021 4.17179 13.9957C4.17179 13.9549 4.17179 13.9549 4.17179 13.9141C4.1309 13.9141 4.1309 13.9141 4.09002 13.9141C0.737419 17.3026 -0.652683 20.0787 0.28768 21.5075C0.696534 22.1607 1.59601 22.4873 2.82257 22.4873C3.92648 22.4873 5.35747 22.2424 7.03377 21.7116C10.5499 20.6094 14.8429 18.5273 19.0541 15.792C20.158 15.098 21.1801 14.3632 22.2022 13.6283C23.3061 12.8118 24.3692 11.9953 25.3095 11.138C25.2686 9.21924 24.9416 7.74954 24.41 6.60645C23.8785 7.25964 23.2244 7.91284 22.4884 8.56604Z" fill="#827FB7"/>
<path d="M17.337 3.13685H17.2961C15.8242 3.74922 14.1888 4.64737 12.5125 5.70882C10.182 7.21934 8.17863 8.89316 6.82941 10.4037C5.4802 11.955 4.98957 13.1798 5.43931 13.8738C5.68462 14.2412 6.17525 14.4045 6.8703 14.4045C7.48358 14.4045 8.2604 14.282 9.20077 13.9963C11.1633 13.3839 13.4937 12.2408 15.8242 10.7303C18.4817 9.01563 20.6487 7.09686 21.8752 5.54552C22.2432 5.09644 22.5294 4.64737 22.7338 4.23912C20.9758 2.8919 18.7679 2.93273 17.337 3.13685ZM14.3114 8.48491C11.1224 10.567 8.05597 11.7509 7.60624 11.0569C7.40181 10.7303 7.81066 10.0363 8.75103 9.09728C9.73228 8.11748 11.1224 7.01521 12.7169 5.99459C15.2927 4.32077 17.8276 3.2185 18.8906 3.2185C19.1359 3.2185 19.3403 3.25932 19.4221 3.42262C19.831 4.07582 17.5005 6.40284 14.3114 8.48491Z" fill="#827FB7"/>
<path d="M66.4401 1.99364C65.9495 1.50374 65.3362 1.25879 64.6412 1.25879H45.5886C44.8936 1.25879 44.2394 1.50374 43.7896 1.99364C43.3399 2.48354 43.0537 3.09591 43.0537 3.78993C43.0537 4.48395 43.299 5.13715 43.7896 5.58622C44.2803 6.0353 44.8936 6.32107 45.5886 6.32107H52.4573V27.9991C52.4573 28.7339 52.7435 29.3871 53.2342 29.877C53.7248 30.3669 54.379 30.6527 55.1149 30.6527C55.8508 30.6527 56.505 30.3669 56.9956 29.877C57.4862 29.3871 57.7724 28.7339 57.7724 27.9991V6.32107H64.6003C65.2953 6.32107 65.9495 6.07612 66.3993 5.58622C66.849 5.09633 67.1352 4.48395 67.1352 3.78993C67.1352 3.09591 66.8899 2.44271 66.4401 1.99364Z" fill="#827FB7"/>
<path d="M95.3868 8.19847C94.1194 5.91227 92.3204 4.11598 90.0718 2.85041C87.8231 1.58484 85.2064 0.931641 82.3444 0.931641C79.4416 0.931641 76.8658 1.58484 74.5762 2.85041C72.2866 4.11598 70.5285 5.9531 69.2611 8.19847C67.9937 10.4847 67.3804 13.0566 67.3804 15.9552C67.3804 18.8129 67.9937 21.4257 69.2611 23.7119C70.5285 25.9981 72.2866 27.8352 74.5762 29.1008C76.8249 30.3664 79.4416 31.0196 82.3444 31.0196C85.2473 31.0196 87.8231 30.3664 90.0718 29.1008C92.3204 27.8352 94.1194 25.9981 95.3868 23.7119C96.6543 21.4257 97.2676 18.8129 97.2676 15.9552C97.2676 13.0566 96.6543 10.4438 95.3868 8.19847ZM82.3444 26.0389C80.5046 26.0389 78.7874 25.5899 77.3155 24.7325C75.8436 23.8344 74.658 22.6505 73.8403 21.0991C73.0226 19.5886 72.5728 17.8331 72.5728 15.9552C72.5728 14.0772 72.9817 12.3218 73.8403 10.8113C74.658 9.30074 75.8436 8.07599 77.3155 7.21867C78.7874 6.36135 80.4637 5.91227 82.3444 5.91227C84.2251 5.91227 85.9423 6.36135 87.4142 7.21867C88.8861 8.07599 90.0309 9.30074 90.8895 10.8113C91.7072 12.3626 92.1569 14.0772 92.1569 15.9552C92.1569 17.8331 91.7481 19.5886 90.8895 21.0991C90.0718 22.6096 88.8861 23.8344 87.4142 24.7325C85.8606 25.5899 84.1843 26.0389 82.3444 26.0389Z" fill="#827FB7"/>
<path d="M120.327 6.11695C119.468 4.60643 118.283 3.38168 116.77 2.52436C115.257 1.66704 113.54 1.25879 111.659 1.25879H104.545C103.809 1.25879 103.155 1.50374 102.665 1.99364C102.133 2.48354 101.888 3.13673 101.888 3.91241V27.9991C101.888 28.7339 102.174 29.3871 102.665 29.877C103.155 30.3669 103.809 30.6527 104.545 30.6527C105.322 30.6527 105.976 30.3669 106.467 29.877C106.957 29.3463 107.203 28.7339 107.203 27.9991V21.018H111.659C113.54 21.018 115.257 20.6098 116.77 19.7933C118.283 18.9768 119.468 17.7929 120.327 16.3232C121.186 14.8535 121.594 13.1796 121.594 11.3017C121.594 9.38294 121.145 7.62747 120.327 6.11695ZM116.402 11.3017C116.402 12.6898 115.952 13.792 115.094 14.6902C114.194 15.5883 113.09 15.9966 111.7 15.9966H107.244V6.32107H111.7C113.09 6.32107 114.194 6.77015 115.094 7.70912C115.952 8.64809 116.402 9.83201 116.402 11.3017Z" fill="#827FB7"/>
<path d="M139.707 2.97372C141.138 3.79022 142.242 4.81084 142.896 5.95393C142.978 6.11723 143.019 6.32136 143.019 6.52548C143.019 6.72961 142.978 6.89291 142.855 7.05621C142.733 7.2195 142.61 7.34198 142.406 7.42363C142.324 7.46445 142.16 7.50528 141.997 7.50528C141.588 7.50528 141.22 7.34198 141.015 6.97456C139.625 4.89249 137.581 3.87187 134.924 3.87187C132.961 3.87187 131.407 4.32094 130.304 5.21909C129.2 6.11723 128.668 7.34198 128.668 8.93415C128.668 10.2814 129.2 11.3836 130.304 12.2818C131.407 13.1799 133.084 13.8331 135.373 14.2006C138.358 14.6905 140.566 15.6294 141.915 16.9766C143.305 18.3239 144 20.0793 144 22.2431C144 23.876 143.632 25.3049 142.896 26.5297C142.16 27.7544 141.138 28.6526 139.83 29.3058C138.521 29.959 136.968 30.2856 135.251 30.2856C133.002 30.2856 131.08 29.8365 129.445 28.8975C127.809 27.9994 126.583 26.7338 125.765 25.1416C125.683 25.0191 125.643 24.8558 125.643 24.7334C125.643 24.4476 125.724 24.2027 125.929 24.0394C126.133 23.8352 126.379 23.7536 126.746 23.7536C127.237 23.7536 127.564 23.9985 127.769 24.4476C128.423 25.6315 129.363 26.5705 130.631 27.2237C131.898 27.8769 133.411 28.2035 135.21 28.2035C137.254 28.2035 138.849 27.7136 140.034 26.693C141.22 25.6723 141.792 24.2435 141.792 22.3655C141.792 20.7734 141.22 19.4261 140.075 18.3647C138.93 17.3032 137.213 16.6092 134.964 16.3235C132.348 15.956 130.263 15.0987 128.75 13.7515C127.237 12.4043 126.501 10.7713 126.501 8.8525C126.501 7.46446 126.869 6.28053 127.564 5.21909C128.259 4.15764 129.24 3.34114 130.508 2.7696C131.775 2.19805 133.247 1.91227 134.924 1.91227C136.641 1.70815 138.235 2.15722 139.707 2.97372Z" fill="#827FB7"/>
</svg>
