<svg width="143" height="22" viewBox="0 0 143 22" fill="none" xmlns="http://www.w3.org/2000/svg">
<path fill-rule="evenodd" clip-rule="evenodd" d="M20.8647 1.93972C21.433 2.07953 21.9315 2.42991 22.265 2.92404C22.6108 3.54732 22.7754 4.25977 22.7392 4.97661C22.7388 5.91876 22.5989 6.85534 22.3243 7.75407C22.0015 8.80304 21.5977 9.82369 21.1166 10.8062L20.5535 12.0805L17.7824 5.15211C17.6469 4.82205 17.533 4.48301 17.4416 4.13727C17.369 3.87338 17.3243 3.60221 17.3082 3.32845C17.2942 2.98232 17.4144 2.64465 17.6423 2.38987C17.8702 2.13509 18.1872 1.98412 18.5233 1.97024V1.76422H10.1656V1.97024C10.45 2.0238 10.7248 2.12157 10.9806 2.26019C11.2417 2.441 11.4616 2.67788 11.6252 2.95456C11.9139 3.42199 12.1618 3.9148 12.3662 4.42722L13.6702 7.63198L11.314 12.4315L7.80202 4.03807C7.71163 3.87036 7.63719 3.69404 7.57974 3.51158C7.54979 3.37882 7.53242 3.24338 7.52788 3.10717C7.52598 2.85167 7.61568 2.60443 7.7798 2.4128C7.98233 2.18766 8.23738 2.01956 8.52073 1.92446V1.7337H0V1.93972C0.692946 2.15762 1.32035 2.55422 1.8227 3.09191C2.48196 3.87286 3.02165 4.75286 3.42311 5.7015L8.8171 18.0475H9.03938L13.8999 8.12796L18.0565 18.0475H18.2788L23.2208 7.05971C23.7445 5.80834 24.4057 4.62297 25.1917 3.52684C25.7051 2.8398 26.3674 2.28585 27.1256 1.9092V1.71081H20.8647V1.93972Z" fill="white" fill-opacity="0.5"/>
<path d="M34.4534 12.8435C33.9199 14.2552 32.7418 14.9495 30.8821 14.9495C29.8729 15.0044 28.8907 14.6031 28.1925 13.8507C27.4796 12.9642 27.1172 11.8336 27.1774 10.6841H34.5868V10.5392C34.5988 9.62446 34.3403 8.72764 33.8458 7.96772C33.3396 7.23355 32.6548 6.64937 31.8601 6.27378C30.9884 5.8646 30.0396 5.65876 29.0816 5.67098C28.0156 5.65673 26.9632 5.91914 26.0216 6.43401C25.1035 6.93532 24.3351 7.68441 23.7988 8.60104C23.2269 9.59209 22.9391 10.7297 22.9689 11.8821C22.9467 12.9494 23.2025 14.0033 23.7099 14.9343C24.2096 15.8244 24.9376 16.5556 25.8141 17.0479C26.7519 17.573 27.8069 17.8361 28.8742 17.8109C30.2333 17.8763 31.5697 17.4347 32.6381 16.5672C33.7097 15.6239 34.43 14.3265 34.6757 12.8969L34.4534 12.8435ZM27.659 7.14364C27.8332 6.47769 28.4193 6.01476 29.089 6.01434C29.2924 6.01527 29.4928 6.0649 29.6744 6.15932C29.8648 6.2673 30.0215 6.4287 30.1263 6.62477C30.2421 6.81408 30.3365 7.01631 30.4079 7.22757C30.5027 7.5292 30.56 7.842 30.5783 8.15848C30.5783 8.53237 30.6302 9.05124 30.6302 9.68456V10.2645H27.1774C27.1802 9.66502 27.2174 9.06627 27.2886 8.47133C27.3711 8.00778 27.4951 7.5531 27.659 7.11312V7.14364Z" fill="white" fill-opacity="0.5"/>
<path d="M47.6789 15.9338C47.6074 15.9981 47.5143 16.0309 47.4195 16.0254H47.1676C46.9262 16.0299 46.7016 15.8982 46.5823 15.682C46.412 15.252 46.3435 14.7865 46.3822 14.3238V8.79177C46.4483 7.91482 46.1829 7.04549 45.6413 6.36531C45.0432 5.79047 44.2319 5.51197 43.4185 5.60227C42.5191 5.61812 41.6243 5.73843 40.7512 5.9609C39.7594 6.1908 38.7971 6.53906 37.8837 6.99863C37.139 7.31663 36.4675 7.79238 35.9129 8.39499C35.525 8.80608 35.2959 9.3486 35.2683 9.92107C35.2504 10.3678 35.4238 10.8001 35.7425 11.1038C36.0958 11.4093 36.5488 11.5648 37.0094 11.5387C37.5681 11.5228 38.0992 11.285 38.4913 10.8749C38.9652 10.3641 39.2098 9.67226 39.1656 8.96727V8.56286C39.1292 7.9718 39.3001 7.38694 39.6472 6.9147C39.9246 6.55556 40.3502 6.352 40.7956 6.36531C41.1138 6.35033 41.4281 6.4413 41.6921 6.62474C41.9755 6.85447 42.1678 7.18273 42.233 7.54802C42.362 8.15677 42.4193 8.77933 42.4034 9.4022V10.6154C41.255 10.9588 40.1806 11.3327 39.3137 11.6837C38.4398 12.0257 37.5862 12.4206 36.7575 12.8664C35.8288 13.2872 35.2156 14.2181 35.1793 15.2623C35.17 15.9848 35.505 16.6661 36.0759 17.086C36.7502 17.5693 37.5592 17.813 38.3802 17.7804C39.2256 17.7958 40.0629 17.6076 40.8252 17.231C41.4604 16.8826 42.0161 16.3988 42.4553 15.8117C42.507 16.3618 42.7458 16.8753 43.1295 17.2615C43.5374 17.6325 44.0675 17.8291 44.6114 17.8109C45.2219 17.8199 45.8234 17.6591 46.3526 17.3454C46.9217 17.0336 47.4057 16.5797 47.7604 16.0254L47.6789 15.9338ZM41.0772 16.1398C40.2103 16.1398 39.7583 15.5294 39.7583 14.2856C39.7498 13.5397 40.0143 12.8178 40.4992 12.2636C41.0433 11.7096 41.7055 11.2942 42.4331 11.0504V14.4993C42.4633 14.9362 42.3338 15.3689 42.07 15.7125C41.8392 16.0091 41.4826 16.1714 41.1142 16.1475L41.0772 16.1398Z" fill="white" fill-opacity="0.5"/>
<path fill-rule="evenodd" clip-rule="evenodd" d="M47.6789 17.2081C48.0755 17.2125 48.4458 17.0044 48.657 16.6587C48.9163 16.0388 49.0232 15.3627 48.9682 14.6901V5.00712C49.0355 4.18816 48.879 3.36613 48.5162 2.63407C48.2585 2.18654 47.7837 1.92009 47.2788 1.9397V1.68027C48.2124 1.44373 49.1904 1.21482 50.1462 0.917231C51.102 0.619646 52.0578 0.375473 52.8951 0.0626275V15.1555C52.8558 15.6778 52.9423 16.202 53.147 16.6816C53.3413 16.9655 53.6545 17.1381 53.9917 17.1471V17.4065H47.6789V17.2081Z" fill="white" fill-opacity="0.5"/>
<path fill-rule="evenodd" clip-rule="evenodd" d="M56.0144 17.147C55.4895 16.5281 55.2349 15.7141 55.3105 14.8961V6.93759H53.5989L53.5471 6.7392C54.2303 6.39192 54.8781 5.97527 55.4809 5.49545C56.1788 4.92763 56.8443 4.31873 57.474 3.67178C58.0916 3.03081 58.6636 2.34484 59.1856 1.61921L59.3856 1.68025V5.93038H61.9641L61.4084 6.9147H59.3856V14.1101C59.3483 14.638 59.4534 15.1661 59.6894 15.6362C59.8881 15.9308 60.2154 16.1051 60.5637 16.1017C60.753 16.0911 60.9413 16.0656 61.1268 16.0254C61.3082 15.9854 61.4797 15.9075 61.6306 15.7965L61.7714 16.0025C61.18 16.52 60.5396 16.9751 59.8598 17.3607C59.277 17.666 58.6317 17.823 57.9778 17.8185C57.2652 17.8623 56.5631 17.6249 56.0144 17.1547V17.147Z" fill="white" fill-opacity="0.5"/>
<path fill-rule="evenodd" clip-rule="evenodd" d="M74.1527 16.7121C73.9675 16.1452 73.892 15.5464 73.9305 14.9495V8.90625C73.9305 6.73922 73.0562 5.64045 71.3446 5.64045C70.8876 5.63059 70.4321 5.6976 69.9961 5.83884C69.5206 6.01246 69.0677 6.24567 68.6476 6.5332C68.203 6.85368 67.6399 7.29624 66.9953 7.838V0.116051C66.0914 0.406006 65.2023 0.69596 64.2687 0.955393C63.3351 1.21483 62.3867 1.47426 61.3494 1.71843V1.97786C61.8543 1.95825 62.3291 2.2247 62.5868 2.67223C62.935 3.40651 63.0884 4.22259 63.0313 5.03765V14.4993C63.0914 15.2289 62.9769 15.9624 62.6979 16.6358C62.4747 17.0029 62.0811 17.223 61.6606 17.2157V17.4752H68.0623V17.2157C67.725 17.2088 67.4158 17.0207 67.2472 16.7198C67.0336 16.1598 66.9474 15.5568 66.9953 14.9571V8.24241C67.2721 7.99169 67.5845 7.78585 67.9215 7.63198C68.1809 7.49338 68.4667 7.41524 68.7587 7.40307C69.135 7.39433 69.4876 7.59184 69.6849 7.92193C69.9564 8.46508 70.0744 9.07575 70.0257 9.68455V14.9495C70.0349 15.4139 70.0076 15.8783 69.9442 16.3382C69.9186 16.5812 69.808 16.8063 69.633 16.9716C69.445 17.1132 69.221 17.1953 68.9884 17.2081V17.4675H74.9678V17.2081C74.6284 17.2091 74.3156 17.0188 74.1527 16.7121Z" fill="white" fill-opacity="0.5"/>
<path fill-rule="evenodd" clip-rule="evenodd" d="M79.2354 17.643C78.7019 17.521 78.1981 17.437 77.7535 17.3531C77.3657 17.2692 76.9715 17.2207 76.5754 17.2081C76.3966 17.2135 76.2184 17.2313 76.042 17.2615C75.8972 17.3093 75.756 17.3679 75.6196 17.437V12.0958L75.8493 12.0347C76.5099 13.1332 77.2531 14.1767 78.0721 15.1555C78.5954 15.8081 79.2215 16.3653 79.9244 16.8037C80.435 17.1137 81.0139 17.2844 81.6064 17.2997C82.0338 17.3399 82.4596 17.2056 82.7919 16.9258C83.041 16.6643 83.1726 16.3074 83.1549 15.9415C83.1742 15.4793 82.9889 15.0331 82.6511 14.7282C82.0983 14.3047 81.4862 13.9702 80.8358 13.7363L79.2057 13.0724C78.1969 12.7169 77.2637 12.1652 76.4569 11.4472C75.9326 10.903 75.6487 10.1608 75.6715 9.3946C75.6513 8.71455 75.8378 8.04497 76.205 7.47938C76.5883 6.88613 77.121 6.41137 77.7461 6.10591C78.5019 5.74413 79.3284 5.56658 80.1616 5.58704C80.6578 5.58091 81.1536 5.61921 81.6434 5.7015C82.1176 5.79306 82.5696 5.84648 82.9326 5.93804C83.2957 6.0296 83.6069 6.0525 83.8069 6.0525C83.9374 6.06879 84.0692 6.06879 84.1996 6.0525L84.4516 5.96856L84.7627 10.3026L84.5627 10.3637C83.8717 9.1573 83.0214 8.05562 82.0361 7.09023C81.4343 6.49409 80.6467 6.13719 79.8133 6.08302C79.4059 6.05946 79.0045 6.19272 78.6871 6.45691C78.3901 6.70339 78.2228 7.07917 78.2351 7.47175C78.215 7.89649 78.3809 8.30814 78.6871 8.59341C79.1234 8.96436 79.6272 9.24193 80.169 9.40986L82.1028 10.0737C83.0696 10.3438 83.964 10.837 84.7183 11.5159C85.2486 12.0684 85.533 12.8226 85.5037 13.5989C85.5521 14.7747 85.0873 15.9111 84.2367 16.6969C83.2757 17.4834 82.0692 17.8822 80.8432 17.8185C80.2963 17.8095 79.751 17.7534 79.2132 17.6507L79.2354 17.643Z" fill="white" fill-opacity="0.5"/>
<path fill-rule="evenodd" clip-rule="evenodd" d="M88.7269 4.88505C89.3671 4.90396 89.9869 4.65194 90.4419 4.1877C90.8969 3.72346 91.1473 3.08754 91.1349 2.42806C91.1192 1.80792 90.8817 1.21559 90.4681 0.764639C90.027 0.25587 89.3887 -0.0238754 88.7269 0.00160036C88.3172 -0.00311117 87.9153 0.116294 87.571 0.344968C87.2119 0.568797 86.9097 0.877428 86.6893 1.24535C86.4727 1.60004 86.3548 2.00913 86.3485 2.42806C86.3539 3.08795 86.6217 3.71673 87.0894 4.16779C87.5144 4.63125 88.1079 4.8912 88.7269 4.88505Z" fill="white" fill-opacity="0.5"/>
<path fill-rule="evenodd" clip-rule="evenodd" d="M111.718 16.7427C111.508 16.2512 111.421 15.7134 111.466 15.1785V8.90628C111.466 6.73925 110.599 5.64047 108.887 5.64047C108.41 5.64331 107.935 5.72048 107.48 5.86939C106.981 6.05623 106.51 6.313 106.079 6.63242C105.564 6.97903 105.07 7.35609 104.597 7.76172C104.531 7.21846 104.282 6.7163 103.893 6.34247C103.372 5.88094 102.698 5.64329 102.012 5.67863C101.24 5.68584 100.48 5.8737 99.7887 6.22801C99.0569 6.58134 98.3861 7.0556 97.803 7.632V5.64047C97.2695 5.83886 96.6768 6.07541 96.0322 6.2738C95.3876 6.47219 94.743 6.70873 94.0983 6.91475C93.4537 7.12077 92.9203 7.25812 92.4683 7.37257V7.632C92.906 7.6404 93.3088 7.87952 93.5352 8.26533C93.7873 8.9673 93.8933 9.716 93.8464 10.4629V15.1785C93.8966 15.7237 93.7458 16.2684 93.4241 16.7045C93.1585 16.9875 92.7911 17.1449 92.409 17.1395C92.0072 17.1721 91.6133 17.0115 91.3421 16.7045C91.0563 16.2531 90.9283 15.7148 90.979 15.1785V5.55654C90.1121 5.89991 89.2082 6.22038 88.2598 6.51034C87.3114 6.80029 86.3186 7.08262 85.3331 7.31916V7.54807C85.8735 7.54924 86.3751 7.83778 86.6594 8.31111C86.9618 9.03217 87.0963 9.81609 87.0521 10.6002V14.4154C87.0932 15.1346 86.9872 15.8547 86.7409 16.529C86.5305 16.9313 86.1174 17.1765 85.6739 17.1624V17.4218H98.87V17.1624C98.5358 17.1262 98.2358 16.9352 98.0549 16.6435C97.8491 16.1643 97.7625 15.6398 97.803 15.1174V8.12798C98.0178 7.91069 98.2688 7.73494 98.5439 7.60911C98.8151 7.46917 99.115 7.3985 99.4182 7.40309C99.8072 7.37479 100.181 7.56429 100.396 7.89907C100.646 8.4491 100.753 9.05634 100.707 9.66169V15.1556C100.75 15.678 100.664 16.2031 100.456 16.6816C100.281 16.957 99.9891 17.13 99.6702 17.1471V17.4065H105.731V17.1471C105.399 17.1269 105.092 16.9565 104.894 16.6816C104.704 16.1767 104.625 15.6346 104.664 15.0945V8.09746C104.909 7.87237 105.172 7.66822 105.449 7.48703C105.714 7.32425 106.015 7.23487 106.324 7.22759C106.702 7.21887 107.056 7.41989 107.25 7.75409C107.518 8.32829 107.633 8.96557 107.583 9.60064V15.0945C107.63 15.6342 107.564 16.1778 107.391 16.6893C107.203 16.9769 106.881 17.1398 106.546 17.1166V17.376H112.622V17.1166C112.273 17.2169 111.902 17.0636 111.718 16.7427Z" fill="white" fill-opacity="0.5"/>
<path d="M124.944 8.9673C124.815 8.29603 124.525 7.66886 124.099 7.14364C123.385 6.16336 122.258 5.59566 121.068 5.61756C120.442 5.60501 119.82 5.73257 119.246 5.99145C118.685 6.26491 118.164 6.61668 117.697 7.03682V5.60993C117.164 5.81595 116.549 6.01434 115.904 6.25089C115.26 6.48743 114.585 6.67819 113.911 6.88421C113.237 7.09023 112.644 7.2581 112.088 7.40307V7.63199C112.44 7.66957 112.782 7.77574 113.096 7.94483C113.37 8.15426 113.551 8.46728 113.6 8.8147C113.727 9.35388 113.785 9.90812 113.77 10.4629V18.4748C113.796 19.1349 113.728 19.7954 113.57 20.4358C113.49 20.8223 113.27 21.1631 112.955 21.3896C112.637 21.5788 112.283 21.6983 111.918 21.7406V22H119.438V21.7406C118.934 21.741 118.45 21.532 118.097 21.1607C117.777 20.5931 117.638 19.9369 117.697 19.2836V17.0937C117.954 17.2945 118.242 17.4493 118.549 17.5515C118.986 17.689 119.441 17.7584 119.898 17.7575C120.598 17.7568 121.292 17.6196 121.943 17.3531C122.58 17.0711 123.155 16.6583 123.632 16.1399C124.144 15.5501 124.535 14.8596 124.781 14.1102C125.079 13.2563 125.227 12.3546 125.218 11.4472C125.22 10.6019 125.125 9.75928 124.936 8.93678L124.944 8.9673ZM120.365 15.8346C120.109 16.5281 119.483 17.003 118.764 17.0479C118.525 17.0487 118.288 16.9994 118.068 16.9029C117.923 16.8276 117.791 16.7298 117.675 16.6129V7.45649C118.043 7.12087 118.505 6.91501 118.994 6.86895C119.579 6.86895 120.061 7.27336 120.476 8.05166C120.926 9.24875 121.118 10.5323 121.039 11.8134C121.039 13.6905 120.839 15.0258 120.387 15.8346H120.365Z" fill="white" fill-opacity="0.5"/>
<path fill-rule="evenodd" clip-rule="evenodd" d="M125.084 17.2081C125.483 17.2137 125.856 17.0057 126.07 16.6587C126.322 16.0368 126.426 15.3619 126.373 14.6901V5.00714C126.439 4.18914 126.285 3.36834 125.929 2.63409C125.671 2.18656 125.196 1.92011 124.691 1.93973V1.6803C125.618 1.44375 126.603 1.21484 127.559 0.917258C128.515 0.619673 129.463 0.36787 130.308 0.0550242V15.1556C130.265 15.678 130.352 16.2031 130.56 16.6816C130.754 16.9656 131.067 17.1381 131.404 17.1471V17.4065H125.084V17.2081Z" fill="white" fill-opacity="0.5"/>
<path d="M142.748 12.8435C142.215 14.2551 141.007 14.9495 139.177 14.9495C138.169 14.9983 137.189 14.598 136.487 13.8507C135.769 12.9684 135.416 11.8317 135.502 10.6841H142.911V10.5391C142.919 9.62504 142.661 8.72945 142.17 7.9677C141.663 7.23631 140.985 6.64843 140.199 6.2585C138.329 5.39738 136.179 5.462 134.361 6.434C133.442 6.93466 132.674 7.6839 132.138 8.60102C131.564 9.58606 131.271 10.7181 131.293 11.8668C131.271 12.9341 131.527 13.988 132.034 14.919C132.537 15.8094 133.267 16.5405 134.146 17.0326C135.083 17.5588 136.139 17.8219 137.206 17.7956C138.572 17.8604 139.915 17.4192 140.992 16.5519C142.049 15.607 142.758 14.3164 143 12.8969L142.748 12.8435ZM135.954 7.14362C136.145 6.48951 136.721 6.03464 137.384 6.01432C137.587 6.01525 137.788 6.06489 137.969 6.1593C138.159 6.26728 138.316 6.42868 138.421 6.62475C138.537 6.81406 138.631 7.01629 138.703 7.22756C138.797 7.52918 138.855 7.84198 138.873 8.15846C138.873 8.53235 138.925 9.05122 138.925 9.68454V10.2644H135.472C135.475 9.665 135.512 9.06625 135.583 8.47131C135.666 8.00776 135.79 7.55308 135.954 7.1131V7.14362Z" fill="white" fill-opacity="0.5"/>
</svg>
