<svg width="115" height="29" viewBox="0 0 115 29" fill="none" xmlns="http://www.w3.org/2000/svg">
<path d="M37.1012 11.4076C37.1012 9.34597 35.0476 7.14692 31.625 7.14692C27.7917 7.14692 23.4107 10.0332 22.7262 15.8057C22.0417 21.5782 25.6012 24.1896 29.2976 24.1896C32.994 24.1896 34.7738 22.8152 36.6905 20.891C35.0476 18.8294 32.8571 19.7915 32.4464 19.9289C32.0357 20.2038 31.3512 20.4787 30.256 20.4787C28.8869 20.4787 27.381 19.7915 27.381 17.1801C36.4167 16.218 37.1012 13.4692 37.1012 11.4076ZM32.7202 11.6825C32.7202 12.3697 32.4464 13.4692 27.9286 14.019C28.8869 10.5829 30.6667 10.3081 31.4881 10.3081C32.3095 10.4455 32.7202 10.9953 32.7202 11.6825ZM17.5238 12.2322C17.5238 12.2322 15.6071 18.2796 15.4702 18.8294C15.4702 18.2796 13.9643 7.4218 13.9643 7.4218C10.6786 7.4218 8.89881 9.75829 8.07738 12.2322C8.07738 12.2322 5.75 18.2796 5.6131 18.8294C5.47619 18.4171 5.20238 12.3697 5.20238 12.3697C4.92857 9.34597 2.19048 7.4218 0 7.4218L2.7381 23.9147C6.16071 23.9147 8.07738 21.5782 9.03572 19.1043C9.03572 19.1043 11.0893 13.7441 11.2262 13.4692C11.2262 13.7441 12.7321 23.9147 12.7321 23.9147C16.1548 23.9147 18.0714 21.7156 19.0298 19.3791L23.8214 7.4218C20.2619 7.4218 18.4821 9.75829 17.5238 12.2322ZM49.8333 7.00948C47.7798 7.00948 46.1369 8.109 44.7679 9.89573L45.8631 0C42.9881 0 40.7976 2.47393 40.25 6.04739L38.0595 23.7772C39.7024 23.7772 41.3452 23.3649 42.3036 22.128C43.125 23.2275 44.3571 24.0521 46.1369 24.0521C50.9286 24.0521 54.2143 18.5545 54.2143 13.3318C54.3512 8.52133 52.0238 7.00948 49.8333 7.00948ZM49.2857 15.5308C48.7381 18.4171 47.2321 20.3412 45.5893 20.3412C44.0833 20.3412 43.3988 19.654 43.3988 19.654C43.6726 17.1801 43.9464 15.5308 44.494 14.1564C45.0417 12.782 46.4107 10.7204 47.7798 10.7204C49.1488 10.8578 49.8333 12.6446 49.2857 15.5308ZM66.2619 7.4218H62.9762V7.28436C63.25 5.08531 63.6607 3.98578 65.4405 3.84834C66.5357 3.7109 67.0833 3.16114 67.2202 2.47393C67.3571 1.92417 67.631 0.137441 67.631 0.137441C60.9226 0.137441 58.869 3.0237 58.3214 7.4218V7.55924H58.1845C57.0893 7.55924 55.8571 8.79621 55.7202 10.3081L55.5833 10.8578H57.7738L55.8571 26.2512L55.3095 29C55.4464 29 55.4464 29 55.5833 29C58.7321 28.8626 60.6488 26.3886 61.1964 22.8152L62.7024 10.7204H63.7976C64.756 10.7204 65.9881 9.75829 66.2619 7.97156V7.4218ZM83.5119 7.14692C79.6786 7.14692 76.119 10.0332 75.0238 14.4313C73.9286 18.8294 75.5714 24.1896 81.1845 24.1896C86.7976 24.1896 90.0833 18.6919 90.0833 14.1564C89.9464 9.62085 86.9345 7.14692 83.5119 7.14692ZM85.0179 15.3934C84.881 17.455 83.9226 20.4787 81.4583 20.4787C78.994 20.4787 79.4048 16.9052 79.5417 15.2559C79.8155 13.4692 80.7738 10.8578 82.9643 10.8578C85.0179 10.8578 85.2917 13.1943 85.0179 15.3934ZM108.976 12.2322C108.976 12.2322 107.06 18.2796 106.923 18.8294C106.923 18.2796 105.417 7.4218 105.417 7.4218C102.131 7.4218 100.351 9.75829 99.5298 12.2322C99.5298 12.2322 97.2024 18.2796 97.0655 18.8294C97.0655 18.4171 96.6548 12.3697 96.6548 12.3697C96.5179 9.34597 93.6429 7.55924 91.4524 7.55924L94.1905 24.0521C97.6131 24.0521 99.5298 21.7156 100.488 19.2417C100.488 19.2417 102.542 13.8815 102.679 13.6066C102.679 13.8815 104.185 24.0521 104.185 24.0521C107.607 24.0521 109.524 21.8531 110.482 19.5166L115 7.4218C111.577 7.4218 109.798 9.75829 108.976 12.2322ZM69.4107 0.137441L66.6726 22.6777L66.125 25.4265C66.2619 25.4265 66.2619 25.4265 66.3988 25.4265C69.4107 25.4265 71.6012 22.6777 71.875 19.3791L73.5179 6.45972C73.9286 2.61137 71.4643 0.137441 69.4107 0.137441Z" fill="white" fill-opacity="0.5"/>
</svg>
